<svg width="450" height="437" viewBox="0 0 450 437" fill="none" xmlns="http://www.w3.org/2000/svg">
<path d="M178.705 33.7815H0.00366211V330.201H178.705V33.7815Z" fill="#EBEBEB"/>
<path d="M165.296 48.5396H13.4246V237.986H165.296V48.5396Z" fill="white"/>
<path d="M21.7165 360.024H11.3602V330.201H29.785L21.7165 360.024Z" fill="#EBEBEB"/>
<path d="M29.785 330.191L26.8129 341.191H11.3602V330.191H29.785Z" fill="#C7C7C7"/>
<path d="M157.002 360.024H167.359V330.201H148.934L157.002 360.024Z" fill="#EBEBEB"/>
<path d="M148.934 330.191L151.916 341.191H167.359V330.191H148.934Z" fill="#C7C7C7"/>
<path d="M165.296 250.16C153.721 250.344 142.146 250.463 130.571 250.517C119.01 250.63 107.448 250.609 95.8459 250.65L96.3361 250.16C96.3361 255.052 96.3361 259.944 96.3361 264.836L96.3157 279.503C96.2136 289.287 96.1217 299.071 95.897 308.856C95.6621 299.071 95.5702 289.287 95.468 279.503V264.836C95.468 259.944 95.468 255.052 95.468 250.16V249.649H95.9583C107.52 249.649 119.081 249.649 130.683 249.782C142.286 249.915 153.735 249.976 165.296 250.16Z" fill="#C7C7C7"/>
<path d="M95.9272 317.23C107.502 317.047 119.077 316.924 130.652 316.863C142.214 316.75 153.775 316.781 165.378 316.74L164.887 317.23C164.887 312.43 164.887 307.64 164.887 302.84L164.949 288.439C165.041 278.849 165.132 269.248 165.357 259.658C165.592 269.248 165.684 278.849 165.776 288.439L165.837 302.84C165.837 307.64 165.888 312.43 165.837 317.23V317.731H165.347C153.785 317.68 142.224 317.731 130.622 317.598C119.019 317.465 107.489 317.425 95.9272 317.23Z" fill="#C7C7C7"/>
<path d="M102.464 291.136H106.876V274.202H102.464V291.136Z" fill="#C7C7C7"/>
<path d="M13.4246 250.16C24.9996 249.976 36.5747 249.857 48.1497 249.802C59.7111 249.69 71.2726 249.711 82.8749 249.67H83.3651V250.16C83.3651 255.052 83.3651 259.944 83.3651 264.836V279.503C83.263 289.287 83.171 299.071 82.9361 308.856C82.7114 299.071 82.6195 289.287 82.5174 279.503V264.836C82.5174 259.944 82.5174 255.052 82.5174 250.16L83.0076 250.65C71.4462 250.65 59.8848 250.65 48.2825 250.517C36.6802 250.385 24.986 250.344 13.4246 250.16Z" fill="#C7C7C7"/>
<path d="M82.7927 317.23C71.2313 317.425 59.6698 317.527 48.0676 317.598C36.4653 317.67 24.9447 317.68 13.3424 317.731H12.8522V317.23C12.8522 312.43 12.8522 307.64 12.8522 302.84L12.9135 288.439C13.0054 278.849 13.0973 269.248 13.3322 259.658C13.5569 269.248 13.6488 278.849 13.7407 288.439L13.802 302.84C13.802 307.64 13.8531 312.43 13.802 317.23L13.3118 316.74C24.8732 316.74 36.4346 316.74 48.0369 316.863C59.6392 316.985 71.2313 317.057 82.7927 317.23Z" fill="#C7C7C7"/>
<path d="M76.2564 274.192H71.8442V291.125H76.2564V274.192Z" fill="#C7C7C7"/>
<path d="M165.296 43.9639H13.4246V48.5394H165.296V43.9639Z" fill="#EBEBEB"/>
<path d="M165.296 108.635H13.4246V113.21H165.296V108.635Z" fill="#EBEBEB"/>
<path d="M165.296 173.305H13.4246V177.881H165.296V173.305Z" fill="#EBEBEB"/>
<path d="M41.868 108.625V57.1292H26.2417L26.2417 108.625H41.868Z" fill="#C7C7C7"/>
<path d="M41.868 94.0297V88.3716H26.2417V94.0297H41.868Z" fill="#DBDBDB"/>
<path d="M41.868 69.3849V67.281H26.2417V69.3849H41.868Z" fill="#DBDBDB"/>
<path d="M143.082 57.1394V108.635H158.708V57.1394H143.082Z" fill="#C7C7C7"/>
<path d="M143.082 71.7339V77.3921H158.708V71.7339H143.082Z" fill="#DBDBDB"/>
<path d="M158.718 105.56V103.456H143.092V105.56H158.718Z" fill="#DBDBDB"/>
<path d="M158.707 95.8886V93.7847H143.081V95.8886H158.707Z" fill="#DBDBDB"/>
<path d="M114.945 108.624V57.1292H103.087V108.624H114.945Z" fill="#C7C7C7"/>
<path d="M114.954 94.0297V88.3716H103.097V94.0297H114.954Z" fill="#DBDBDB"/>
<path d="M114.954 69.3952V67.2913H103.097V69.3952H114.954Z" fill="#DBDBDB"/>
<path d="M52.7961 108.624L52.7961 48.5498H41.8679V108.624H52.7961Z" fill="#DBDBDB"/>
<path d="M50.5593 77.3004V54.198H44.0024V77.3004H50.5593Z" fill="#EBEBEB"/>
<path d="M158.718 52.1349V108.625H165.306V52.1349H158.718Z" fill="#A6A6A6"/>
<path d="M160.055 56.0464V77.77H164.008V56.0464H160.055Z" fill="#EBEBEB"/>
<path d="M114.954 53.6975V108.625H125.883V53.6975H114.954Z" fill="#DBDBDB"/>
<path d="M117.191 82.3457V103.467H123.748V82.3457H117.191Z" fill="#EBEBEB"/>
<path d="M71.3334 108.634V63.0015H52.7861V108.634H71.3334Z" fill="#A6A6A6"/>
<path d="M71.3334 103.794V99.5449H52.7861V103.794H71.3334Z" fill="#C7C7C7"/>
<path d="M71.3334 96.7464V95.1021H52.7861V96.7464H71.3334Z" fill="#C7C7C7"/>
<path d="M26.2411 108.645L26.2411 65.759H13.4234L13.4234 108.645H26.2411Z" fill="#A6A6A6"/>
<path d="M26.2411 104.079V100.086H13.4234V104.079H26.2411Z" fill="#C7C7C7"/>
<path d="M26.2411 78.5771V74.5837H13.4234V78.5771H26.2411Z" fill="#C7C7C7"/>
<path d="M26.2312 82.8766V81.3242H13.4135V82.8766H26.2312Z" fill="#C7C7C7"/>
<path d="M143.082 108.635V48.5498H125.872V108.635H143.082Z" fill="#A6A6A6"/>
<path d="M143.082 102.261V96.6646H125.872V102.261H143.082Z" fill="#C7C7C7"/>
<path d="M143.082 66.5356V60.9387H125.872V66.5356H143.082Z" fill="#C7C7C7"/>
<path d="M143.082 72.5509V70.3755H125.872V72.5509H143.082Z" fill="#C7C7C7"/>
<path d="M103.056 106.625L86.8328 57.5688L80.7529 59.5796L96.9766 108.635L103.056 106.625Z" fill="#A6A6A6"/>
<path d="M101.347 101.424L99.8329 96.8469L93.753 98.8576L95.2667 103.435L101.347 101.424Z" fill="#C7C7C7"/>
<path d="M91.694 72.2553L90.1803 67.6785L84.1004 69.6892L85.6141 74.2661L91.694 72.2553Z" fill="#C7C7C7"/>
<path d="M71.3444 50.8378V108.635H80.761V50.8378H71.3444Z" fill="#C7C7C7"/>
<path d="M71.3444 56.9657V62.3481H80.761V56.9657H71.3444Z" fill="#EBEBEB"/>
<path d="M71.3334 91.3434V96.7258H80.75V91.3434H71.3334Z" fill="#EBEBEB"/>
<path d="M71.3444 85.5528V87.6465H80.761V85.5528H71.3444Z" fill="#EBEBEB"/>
<path d="M130.142 173.295V121.799H114.516V173.295H130.142Z" fill="#C7C7C7"/>
<path d="M130.142 158.7V153.042H114.516V158.7H130.142Z" fill="#DBDBDB"/>
<path d="M130.142 134.055V131.951H114.516V134.055H130.142Z" fill="#DBDBDB"/>
<path d="M20.001 121.8L20.001 173.295H35.6273V121.8H20.001Z" fill="#C7C7C7"/>
<path d="M20.0109 136.394V142.052H35.6372V136.394H20.0109Z" fill="#DBDBDB"/>
<path d="M35.6377 170.231V168.127H20.0114V170.231H35.6377Z" fill="#DBDBDB"/>
<path d="M35.6377 160.549V158.445H20.0114V160.549H35.6377Z" fill="#DBDBDB"/>
<path d="M75.6235 173.285V121.789H63.7659V173.285H75.6235Z" fill="#C7C7C7"/>
<path d="M75.6235 158.7V153.042H63.7659V158.7H75.6235Z" fill="#DBDBDB"/>
<path d="M75.6235 134.055V131.951H63.7659V134.055H75.6235Z" fill="#DBDBDB"/>
<path d="M114.505 173.295V113.221H103.577V173.295H114.505Z" fill="#DBDBDB"/>
<path d="M112.37 141.961V118.858H105.814V141.961H112.37Z" fill="#EBEBEB"/>
<path d="M13.4246 129.317L13.4246 173.285H20.0121L20.0121 129.317H13.4246Z" fill="#A6A6A6"/>
<path d="M14.7012 132.35L14.7012 149.263H18.6537V132.35H14.7012Z" fill="#EBEBEB"/>
<path d="M52.8467 118.358V173.285H63.7749V118.358H52.8467Z" fill="#DBDBDB"/>
<path d="M54.9813 147.006V168.127H61.5382V147.006H54.9813Z" fill="#EBEBEB"/>
<path d="M103.588 173.305V127.672H85.0407V173.305H103.588Z" fill="#A6A6A6"/>
<path d="M103.588 168.454V164.205H85.0407V168.454H103.588Z" fill="#C7C7C7"/>
<path d="M103.598 161.417V159.772H85.0506V161.417H103.598Z" fill="#C7C7C7"/>
<path d="M165.296 173.295V118.358H152.478V173.295H165.296Z" fill="#A6A6A6"/>
<path d="M165.306 167.473V162.356H152.488V167.473H165.306Z" fill="#C7C7C7"/>
<path d="M165.296 134.801V129.684H152.478V134.801H165.296Z" fill="#C7C7C7"/>
<path d="M165.296 140.306V138.325H152.478V140.306H165.296Z" fill="#C7C7C7"/>
<path d="M52.8467 173.305L52.8467 113.221H35.6373V173.305H52.8467Z" fill="#A6A6A6"/>
<path d="M52.8467 166.922V161.325H35.6373V166.922H52.8467Z" fill="#C7C7C7"/>
<path d="M52.8467 131.196V125.599H35.6373V131.196H52.8467Z" fill="#C7C7C7"/>
<path d="M52.8467 137.211V135.036H35.6373V137.211H52.8467Z" fill="#C7C7C7"/>
<path d="M136.229 173.304L152.453 124.248L146.373 122.237L130.149 171.293L136.229 173.304Z" fill="#DBDBDB"/>
<path d="M137.953 168.117L139.467 163.54L133.387 161.529L131.874 166.106L137.953 168.117Z" fill="#C7C7C7"/>
<path d="M147.596 138.938L149.11 134.361L143.03 132.35L141.516 136.927L147.596 138.938Z" fill="#C7C7C7"/>
<path d="M75.6235 115.498V173.295H85.0402V115.498H75.6235Z" fill="#DBDBDB"/>
<path d="M75.6235 121.636V127.018H85.0402V121.636H75.6235Z" fill="#EBEBEB"/>
<path d="M75.6235 156.014V161.396H85.0402V156.014H75.6235Z" fill="#EBEBEB"/>
<path d="M75.6235 150.213V152.307H85.0402V150.213H75.6235Z" fill="#EBEBEB"/>
<path d="M36.2002 237.976V186.48H24.3426L24.3426 237.976H36.2002Z" fill="#C7C7C7"/>
<path d="M36.2002 223.391V217.733H24.3426V223.391H36.2002Z" fill="#DBDBDB"/>
<path d="M36.2002 198.746V196.642H24.3426V198.746H36.2002Z" fill="#DBDBDB"/>
<path d="M24.3417 237.986L24.3417 177.911H13.4135L13.4135 237.986H24.3417Z" fill="#DBDBDB"/>
<path d="M22.207 206.651V183.549H15.6501L15.6501 206.651H22.207Z" fill="#EBEBEB"/>
<path d="M36.2002 192.353V237.986H54.7475V192.353H36.2002Z" fill="#A6A6A6"/>
<path d="M36.2002 197.194V201.443H54.7475V197.194H36.2002Z" fill="#C7C7C7"/>
<path d="M36.2002 204.241V205.885H54.7475V204.241H36.2002Z" fill="#C7C7C7"/>
<path d="M154.644 237.976V186.48H145.023V237.976H154.644Z" fill="#C7C7C7"/>
<path d="M154.644 223.381V217.723H145.023V223.381H154.644Z" fill="#DBDBDB"/>
<path d="M154.644 198.736V196.632H145.023V198.736H154.644Z" fill="#DBDBDB"/>
<path d="M54.7572 181.997V237.986H67.197V181.997H54.7572Z" fill="#C7C7C7"/>
<path d="M54.7473 197.858V204.006H67.1871V197.858H54.7473Z" fill="#DBDBDB"/>
<path d="M67.1871 234.636V232.348H54.7474V234.636H67.1871Z" fill="#DBDBDB"/>
<path d="M67.197 224.117V221.829H54.7572V224.117H67.197Z" fill="#DBDBDB"/>
<path d="M96.5304 237.965V179.882H84.6728V237.965H96.5304Z" fill="#C7C7C7"/>
<path d="M96.5304 221.502V215.118H84.6728V221.502H96.5304Z" fill="#DBDBDB"/>
<path d="M96.5304 193.711V191.342H84.6728V193.711H96.5304Z" fill="#DBDBDB"/>
<path d="M73.4988 237.965V180.179H67.187V237.965H73.4988Z" fill="#DBDBDB"/>
<path d="M72.2639 207.846V185.622H68.4748V207.846H72.2639Z" fill="#EBEBEB"/>
<path d="M124.504 183.048V237.975H145.022V183.048H124.504Z" fill="#DBDBDB"/>
<path d="M128.517 211.687V232.808H140.824V211.687H128.517Z" fill="#EBEBEB"/>
<path d="M124.504 237.976V188.901H105.956V237.976H124.504Z" fill="#A6A6A6"/>
<path d="M124.504 232.777V228.202H105.956V232.777H124.504Z" fill="#C7C7C7"/>
<path d="M124.504 225.209V223.432H105.956V225.209H124.504Z" fill="#C7C7C7"/>
<path d="M165.306 237.976V183.038H154.653V237.976H165.306Z" fill="#A6A6A6"/>
<path d="M165.296 232.154V227.037H154.643V232.154H165.296Z" fill="#C7C7C7"/>
<path d="M165.306 199.482V194.365H154.653V199.482H165.306Z" fill="#C7C7C7"/>
<path d="M165.296 204.976V202.995H154.643V204.976H165.296Z" fill="#C7C7C7"/>
<path d="M84.6827 237.976V185.949H73.4992V237.976H84.6827Z" fill="#A6A6A6"/>
<path d="M84.6718 232.47V227.619H73.4882V232.47H84.6718Z" fill="#C7C7C7"/>
<path d="M84.6718 201.535V196.683H73.4882V201.535H84.6718Z" fill="#C7C7C7"/>
<path d="M84.6827 206.723V204.844H73.4992V206.723H84.6827Z" fill="#C7C7C7"/>
<path d="M96.5304 182.681V237.975H105.947V182.681H96.5304Z" fill="#DBDBDB"/>
<path d="M96.5403 188.543V193.701H105.957V188.543H96.5403Z" fill="#EBEBEB"/>
<path d="M96.5304 221.43V226.587H105.947V221.43H96.5304Z" fill="#EBEBEB"/>
<path d="M96.5304 215.894V217.896H105.947V215.894H96.5304Z" fill="#EBEBEB"/>
<path d="M314.705 332.816H445.548L449.756 249.792H310.497L314.705 332.816Z" fill="#EBEBEB"/>
<path d="M435.959 287.796H320.733L319.139 258.974H437.807L435.959 287.796ZM321.703 286.775H434.999L436.725 259.995H320.222L321.703 286.775Z" fill="#DBDBDB"/>
<path d="M434.374 320.948H324.07L322.783 294.935H436.028L434.374 320.948ZM324.99 319.927H433.434L434.935 295.956H323.825L324.99 319.927Z" fill="#DBDBDB"/>
<path d="M391.602 276.51H367.171L366.273 269.555H392.5L391.602 276.51ZM368.111 275.489H390.744L391.377 270.576H367.478L368.111 275.489Z" fill="#DBDBDB"/>
<path d="M391.602 311.419H367.171L366.273 304.464H392.5L391.602 311.419ZM368.111 310.398H390.744L391.377 305.485H367.478L368.111 310.398Z" fill="#DBDBDB"/>
<path d="M332.855 332.816L331.588 341.855L329.025 360.024H324.03V332.816H332.855Z" fill="#EBEBEB"/>
<path d="M332.855 332.816L331.588 341.855H324.03V332.816H332.855Z" fill="#DBDBDB"/>
<path d="M427.409 332.816L428.676 341.855L431.229 360.024H436.223V332.816H427.409Z" fill="#EBEBEB"/>
<path d="M427.409 332.816L428.676 341.855H436.223V332.816H427.409Z" fill="#DBDBDB"/>
<path d="M439.451 210.052H387.955V219.673H439.451V210.052Z" fill="#C7C7C7"/>
<path d="M424.856 210.052H419.198V219.673H424.856V210.052Z" fill="#DBDBDB"/>
<path d="M400.223 210.052H398.119V219.673H400.223V210.052Z" fill="#DBDBDB"/>
<path d="M441.176 199.39H375.985V210.042H441.176V199.39Z" fill="#A6A6A6"/>
<path d="M434.262 199.39H428.185V210.042H434.262V199.39Z" fill="#C7C7C7"/>
<path d="M395.493 199.39H389.416V210.042H395.493V199.39Z" fill="#C7C7C7"/>
<path d="M402.018 199.39H399.659V210.042H402.018V199.39Z" fill="#C7C7C7"/>
<path d="M388.773 236.29H444.068V226.873H388.773V236.29Z" fill="#A6A6A6"/>
<path d="M394.634 236.29H399.792V226.873H394.634V236.29Z" fill="#EBEBEB"/>
<path d="M427.512 236.29H432.669V226.873H427.512V236.29Z" fill="#EBEBEB"/>
<path d="M421.986 236.29H423.988V226.873H421.986V236.29Z" fill="#EBEBEB"/>
<path d="M441.269 236.29H372.86V249.792H441.269V236.29Z" fill="#C7C7C7"/>
<path d="M416.43 237.689H372.86V248.393H416.43V237.689Z" fill="white"/>
<path d="M375.679 239.885C379.084 239.817 382.488 239.766 385.892 239.732L396.106 239.681L406.319 239.732C409.72 239.732 413.111 239.814 416.532 239.885C413.131 239.967 409.74 240.018 406.319 240.049H396.106H385.892C382.481 240.015 379.077 239.96 375.679 239.885Z" fill="#DBDBDB"/>
<path d="M375.679 241.99C379.08 241.918 382.471 241.857 385.892 241.826H396.106H406.319C409.72 241.826 413.111 241.908 416.532 241.99C413.131 242.061 409.74 242.122 406.319 242.143L396.106 242.194L385.892 242.143C382.471 242.122 379.08 242.061 375.679 241.99Z" fill="#DBDBDB"/>
<path d="M375.679 244.083C379.084 244.015 382.488 243.964 385.892 243.93H396.106H406.319C409.72 243.93 413.111 244.012 416.532 244.083C413.131 244.165 409.74 244.216 406.319 244.247L396.106 244.298L385.892 244.247C382.481 244.219 379.077 244.165 375.679 244.083Z" fill="#DBDBDB"/>
<path d="M375.679 246.187C379.08 246.116 382.471 246.055 385.892 246.034H396.106H406.319C409.72 246.034 413.111 246.126 416.532 246.198C413.131 246.269 409.74 246.33 406.319 246.361H396.106L385.892 246.31C382.471 246.32 379.08 246.259 375.679 246.187Z" fill="#DBDBDB"/>
<path d="M435.743 219.673H373.616V226.874H435.743V219.673Z" fill="#EBEBEB"/>
<path d="M399.251 226.128H435.753V220.419H399.251V226.128Z" fill="white"/>
<path d="M433.353 224.954C430.514 224.954 427.665 225.005 424.825 225.015H416.287H407.759C404.909 225.015 402.07 225.015 399.221 224.954C402.07 224.954 404.909 224.903 407.759 224.892H416.287H424.825C427.695 224.903 430.545 224.923 433.353 224.954Z" fill="#DBDBDB"/>
<path d="M433.353 223.83C430.514 223.83 427.665 223.83 424.825 223.892H416.287H407.759C404.909 223.892 402.07 223.892 399.221 223.83C402.07 223.83 404.909 223.779 407.759 223.769H424.825L433.353 223.83Z" fill="#DBDBDB"/>
<path d="M433.353 222.717C430.514 222.717 427.665 222.768 424.825 222.778H416.287H407.759C404.909 222.778 402.07 222.778 399.221 222.717C402.07 222.717 404.909 222.666 407.759 222.656H416.287H424.825C427.695 222.666 430.545 222.686 433.353 222.717Z" fill="#DBDBDB"/>
<path d="M433.353 221.594C430.514 221.594 427.665 221.645 424.825 221.655H416.287H407.759C404.909 221.655 402.07 221.655 399.221 221.594C402.07 221.594 404.909 221.543 407.759 221.532H416.287H424.825C427.695 221.543 430.545 221.563 433.353 221.594Z" fill="#DBDBDB"/>
<path d="M319.721 109.462H353.659V75.5232H319.721V109.462Z" fill="#DBDBDB"/>
<path d="M324.98 104.202H348.399V80.7831H324.98V104.202Z" fill="white"/>
<path d="M348.389 80.7832V104.202H324.97L348.389 80.7832Z" fill="#EBEBEB"/>
<path d="M319.721 67.7305H353.659V33.7917L319.721 33.7917V67.7305Z" fill="#DBDBDB"/>
<path d="M324.98 62.4604H348.399V39.0414H324.98V62.4604Z" fill="white"/>
<path d="M348.389 45.9253V62.4606H331.854L348.389 45.9253Z" fill="#EBEBEB"/>
<path d="M267.235 109.748H311.592V33.7919H267.235V109.748Z" fill="#DBDBDB"/>
<path d="M272.719 104.202H306.106V39.3274H272.719V104.202Z" fill="white"/>
<path d="M306.105 61.6738V104.202H284.218L306.105 61.6738Z" fill="#EBEBEB"/>
<path d="M361.575 109.748L437.531 109.748V33.7919L361.575 33.7919V109.748Z" fill="#DBDBDB"/>
<path d="M431.985 39.3274H367.121V104.202H431.985V39.3274Z" fill="white"/>
<path d="M385.279 104.202C395.084 94.336 422.895 66.4129 431.984 57.415V104.202H385.279Z" fill="#EBEBEB"/>
<path d="M0.00366211 360.024L56.2584 359.779L112.503 359.687L225.002 359.524L337.502 359.687L393.746 359.779L450.001 360.024L393.746 360.279L337.502 360.371L225.002 360.535L112.503 360.371L56.2584 360.279L0.00366211 360.024Z" fill="#263238"/>
<path d="M225 436.256C340.221 436.256 433.626 424.628 433.626 410.284C433.626 395.939 340.221 384.311 225 384.311C109.778 384.311 16.3729 395.939 16.3729 410.284C16.3729 424.628 109.778 436.256 225 436.256Z" fill="#EBEBEB"/>
<path d="M172.421 347.655H382.518V306.2H172.421V347.655Z" fill="#BEC120"/>
<path d="M343.299 347.655H363.828V306.2H343.299V347.655Z" fill="#023527"/>
<path d="M327.11 347.655H335.679V306.2H327.11V347.655Z" fill="#023527"/>
<path d="M191.519 347.655H212.048V306.2H191.519V347.655Z" fill="#023527"/>
<path d="M138.724 200.81L84.7717 403.862L114.552 411.774L168.504 208.722L138.724 200.81Z" fill="#023527"/>
<path d="M94.8367 365.954L89.5651 385.794L119.345 393.707L124.617 373.866L94.8367 365.954Z" fill="#BEC120"/>
<path d="M133.818 219.28L128.547 239.12L158.327 247.033L163.598 227.193L133.818 219.28Z" fill="#BEC120"/>
<path d="M127.951 410.896L371.282 410.896V390.173H127.951V410.896Z" fill="#BEC120"/>
<path d="M307.114 410.896H317.031V390.173H307.114V410.896Z" fill="#A6A6A6"/>
<path d="M323.588 410.896H333.505V390.173H323.588V410.896Z" fill="#A6A6A6"/>
<path d="M152.229 410.896H162.146V390.173H152.229V410.896Z" fill="#A6A6A6"/>
<path d="M168.693 410.896H178.61V390.173H168.693V410.896Z" fill="#A6A6A6"/>
<path d="M296.635 275.274H150.892V306.199H296.635V275.274Z" fill="#455A64"/>
<path d="M379.71 275.274H296.625V306.199H379.71V275.274Z" fill="#455A64"/>
<path d="M296.635 278.481H150.892V302.993H296.635V278.481Z" fill="white"/>
<path d="M160.318 283.526C171.675 283.349 183.036 283.23 194.4 283.169L228.471 283.056L262.553 283.169C273.91 283.23 285.267 283.349 296.624 283.526C285.267 283.696 273.91 283.819 262.553 283.894L228.471 283.996L194.359 283.884C183.029 283.822 171.682 283.703 160.318 283.526Z" fill="#DBDBDB"/>
<path d="M160.318 288.337C171.675 288.166 183.036 288.044 194.4 287.969L228.471 287.867L262.553 287.969C273.91 288.044 285.267 288.166 296.624 288.337C285.267 288.507 273.91 288.626 262.553 288.694L228.471 288.806L194.359 288.694C183.029 288.633 171.682 288.514 160.318 288.337Z" fill="#DBDBDB"/>
<path d="M160.318 293.147C171.675 292.977 183.036 292.855 194.4 292.78L228.471 292.677L262.553 292.78C273.91 292.841 285.267 292.963 296.624 293.147C285.267 293.324 273.91 293.443 262.553 293.505L228.471 293.617L194.359 293.505C183.029 293.443 171.682 293.324 160.318 293.147Z" fill="#DBDBDB"/>
<path d="M160.318 297.957C171.675 297.78 183.036 297.658 194.4 297.59L228.471 297.477L262.553 297.59C273.91 297.651 285.267 297.773 296.624 297.957C285.267 298.134 273.91 298.254 262.553 298.315L228.471 298.427L194.359 298.315C183.029 298.254 171.682 298.134 160.318 297.957Z" fill="#DBDBDB"/>
<path d="M284.369 184.294H165.088V206.498H284.369V184.294Z" fill="#A6A6A6"/>
<path d="M352.369 184.294H284.369V206.498H352.369V184.294Z" fill="#A6A6A6"/>
<path d="M284.369 186.602H165.088V204.199H284.369V186.602Z" fill="white"/>
<path d="M172.809 190.218C182.11 190.095 191.408 190.01 200.702 189.963L228.594 189.881L256.487 189.963C265.781 190.003 275.075 190.089 284.369 190.218C275.075 190.34 265.781 190.429 256.487 190.483L228.594 190.555L200.702 190.483C191.408 190.436 182.11 190.347 172.809 190.218Z" fill="#DBDBDB"/>
<path d="M172.809 193.67C182.11 193.547 191.408 193.462 200.702 193.415L228.594 193.333L256.487 193.415C265.781 193.456 275.075 193.541 284.369 193.67C275.075 193.793 265.781 193.881 256.487 193.936L228.594 194.007L200.702 193.936C191.408 193.888 182.11 193.799 172.809 193.67Z" fill="#DBDBDB"/>
<path d="M172.809 197.122C182.11 196.999 191.408 196.914 200.702 196.867L228.594 196.785L256.487 196.867C265.781 196.907 275.075 196.993 284.369 197.122C275.075 197.251 265.781 197.34 256.487 197.387L228.594 197.459L200.702 197.387C191.408 197.34 182.11 197.251 172.809 197.122Z" fill="#DBDBDB"/>
<path d="M172.809 200.625C182.11 200.502 191.408 200.417 200.702 200.37L228.594 200.288L256.487 200.37C265.781 200.41 275.075 200.496 284.369 200.625C275.075 200.761 265.781 200.85 256.487 200.89L228.594 200.962L200.702 200.89C191.408 200.809 182.11 200.72 172.809 200.625Z" fill="#DBDBDB"/>
<path d="M128.626 240.446L99.5796 349.575L83.0137 411.795L67.0299 407.536L83.5958 345.316L112.642 236.188L128.626 240.446Z" fill="#BEC120"/>
<path opacity="0.1" d="M128.626 240.446L99.5796 349.575L83.0137 411.795L67.0299 407.536L83.5958 345.316L112.642 236.188L128.626 240.446Z" fill="black"/>
<path d="M97.9135 349.11L126.97 239.984L114.298 236.61L85.2412 345.736L97.9135 349.11Z" fill="white"/>
<path d="M122.478 246.37C120.313 254.895 118.114 263.406 115.88 271.904L109.14 297.437L102.297 322.97C99.9953 331.467 97.6667 339.958 95.3108 348.442C97.4896 339.91 99.6923 331.399 101.919 322.909L108.649 297.375L115.502 271.842C117.804 263.345 120.129 254.854 122.478 246.37Z" fill="#DBDBDB"/>
<path d="M119.995 245.707C117.823 254.245 115.621 262.756 113.387 271.24L106.657 296.773L99.8036 322.306C97.509 330.804 95.1837 339.294 92.8279 347.778C94.9999 339.253 97.2026 330.742 99.4359 322.245L106.166 296.712L113.02 271.178C115.321 262.681 117.646 254.19 119.995 245.707Z" fill="#DBDBDB"/>
<path d="M117.515 245.053C115.343 253.584 113.14 262.096 110.907 270.586L104.176 296.119L97.323 321.653C95.0284 330.15 92.7032 338.637 90.3473 347.114C92.5125 338.583 94.7118 330.072 96.9451 321.581L103.686 296.048L110.529 270.515C112.823 262.051 115.152 253.564 117.515 245.053Z" fill="#DBDBDB"/>
<path d="M115.022 244.389C112.857 252.914 110.657 261.425 108.424 269.922L101.683 295.455L94.8404 320.989C92.5458 329.486 90.2172 337.973 87.8545 346.45C90.0265 337.926 92.2292 329.414 94.4625 320.917L101.193 295.384L108.046 269.851C110.348 261.353 112.673 252.866 115.022 244.389Z" fill="#DBDBDB"/>
<path d="M232.423 390.163H354.523V347.656H232.423V390.163Z" fill="#263238"/>
<path d="M146.662 390.163H232.423V347.656H146.662V390.163Z" fill="#263238"/>
<path d="M232.423 385.751H354.523V352.068H232.423V385.751Z" fill="white"/>
<path d="M346.619 378.826C337.086 378.996 327.571 379.116 318.073 379.184L289.526 379.296L260.929 379.184C251.397 379.122 241.864 379.003 232.332 378.826C241.864 378.656 251.397 378.533 260.929 378.459L289.526 378.356L318.073 378.459C327.591 378.533 337.107 378.656 346.619 378.826Z" fill="#DBDBDB"/>
<path d="M346.619 372.208C337.086 372.378 327.571 372.497 318.073 372.566L289.526 372.678L260.929 372.566C251.397 372.504 241.864 372.385 232.332 372.208C241.864 372.038 251.397 371.915 260.929 371.84L289.526 371.738L318.073 371.84C327.591 371.909 337.107 372.031 346.619 372.208Z" fill="#DBDBDB"/>
<path d="M346.619 365.61C337.086 365.781 327.571 365.9 318.073 365.968L289.526 366.08L260.929 365.968C251.397 365.907 241.864 365.787 232.332 365.61C241.864 365.433 251.397 365.311 260.929 365.243L289.526 365.13L318.073 365.243C327.591 365.304 337.107 365.427 346.619 365.61Z" fill="#DBDBDB"/>
<path d="M346.619 359.002C337.086 359.179 327.571 359.298 318.073 359.36L289.526 359.472L260.929 359.36C251.397 359.298 241.864 359.179 232.332 359.002C241.864 358.818 251.397 358.696 260.929 358.635L289.526 358.522L318.073 358.635C327.591 358.696 337.107 358.818 346.619 359.002Z" fill="#DBDBDB"/>
<path d="M383.151 246.432H159.051V275.396H383.151V246.432Z" fill="#C7C7C7"/>
<path d="M266.312 252.345H180.122V269.728H266.312V252.345Z" fill="white"/>
<path d="M368.026 252.345H287.116V255.031H368.026V252.345Z" fill="white"/>
<path d="M368.026 259.576H287.116V262.262H368.026V259.576Z" fill="white"/>
<path d="M368.026 266.797H287.116V269.483H368.026V266.797Z" fill="white"/>
<path d="M339.796 206.498H174.545V246.299H339.796V206.498Z" fill="#BEC120"/>
<path d="M322.269 206.498H306.867V246.299H322.269V206.498Z" fill="#263238"/>
<path d="M296.767 206.498H290.792V246.299H296.767V206.498Z" fill="#263238"/>
<path d="M49.4131 332.51C55.8985 319.171 67.2455 312.328 80.0529 316.117C92.8604 319.906 94.8213 337.729 85.2821 342.233C75.7429 346.737 66.1833 333.582 61.1379 330.886C56.0926 328.189 49.4131 332.51 49.4131 332.51Z" fill="#BEC120"/>
<path d="M43.1325 367.991C43.1325 366.377 43.2347 364.774 43.2857 363.17C43.3981 359.963 43.5104 356.746 43.633 353.539C43.8475 347.677 44.4807 341.916 46.9115 336.503C49.0572 331.599 52.6443 327.463 57.1962 324.646C58.8871 323.629 60.708 322.845 62.6093 322.317C64.3269 320.573 66.5174 319.369 68.9109 318.855C71.8734 318.249 74.9197 318.173 77.9088 318.63C78.0211 318.63 78.0109 318.804 77.9088 318.794C75.0575 318.431 72.1627 318.636 69.3909 319.396C68.2081 319.725 67.0617 320.174 65.9694 320.734C65.281 321.107 64.619 321.527 63.9881 321.99C66.5682 321.457 69.2328 321.485 71.8012 322.072C72.7256 322.296 73.6307 322.593 74.5077 322.961C75.2085 322.808 75.9259 322.746 76.6423 322.777C77.5768 322.807 78.5051 322.94 79.4101 323.175C81.2604 323.697 83.0302 324.47 84.67 325.473C84.7721 325.524 84.67 325.667 84.5882 325.616C82.9843 324.738 81.2654 324.088 79.4816 323.686C78.6152 323.485 77.734 323.355 76.8466 323.298C76.3567 323.272 75.8658 323.272 75.3759 323.298C79.0197 324.979 81.9479 327.9 83.6384 331.54C83.6384 331.642 83.5363 331.724 83.4954 331.621C82.484 329.509 81.0076 327.653 79.177 326.192C77.3464 324.731 75.2089 323.703 72.9247 323.185C72.6387 323.114 72.3527 323.073 72.0668 323.012C72.1689 323.43 72.1485 323.9 72.2098 324.309C72.2915 324.952 72.4038 325.596 72.5264 326.239C72.79 327.558 73.1311 328.861 73.5477 330.14C73.9821 331.436 74.5007 332.702 75.1001 333.93C75.6755 335.226 76.4023 336.45 77.2653 337.576C77.3368 337.668 77.1938 337.78 77.1326 337.678C76.3563 336.473 75.4678 335.359 74.7631 334.113C74.094 332.918 73.5136 331.676 73.0268 330.396C72.5422 329.094 72.1631 327.755 71.8931 326.392C71.7502 325.677 71.6378 324.952 71.5561 324.227C71.4679 323.794 71.4404 323.35 71.4744 322.909C69.9705 322.676 68.4424 322.642 66.9295 322.807C67.5014 325.994 68.1142 329.303 69.8913 332.071C69.9526 332.163 69.7892 332.244 69.7381 332.153C68.9083 330.683 68.1748 329.162 67.5423 327.597C66.9601 326.08 66.5923 324.488 66.4495 322.869C63.8098 323.219 61.2616 324.072 58.9427 325.381C54.5702 327.92 51.0806 331.737 48.9439 336.32C46.6897 341.25 45.4332 346.578 45.2467 351.997C44.8177 358.809 44.736 365.662 44.0517 372.423C44.0517 372.863 43.3062 373.016 43.2245 372.515C43.0478 371.014 43.017 369.498 43.1325 367.991Z" fill="#263238"/>
<path d="M58.1261 323.583C58.5502 323.063 59.0453 322.606 59.5968 322.225C60.1279 321.785 60.6182 321.356 61.2412 320.968C62.3667 320.199 63.6128 319.622 64.9282 319.263C65.0303 319.263 65.0711 319.406 64.9282 319.426C63.6029 319.757 62.3634 320.366 61.2922 321.213C60.7509 321.612 60.2709 322.041 59.7194 322.48C59.2695 322.951 58.7733 323.375 58.2385 323.746C58.1772 323.797 58.0546 323.675 58.1261 323.583Z" fill="#263238"/>
<path d="M78.8171 328.414C79.8914 329.659 80.8842 330.973 81.7891 332.346C82.6788 333.729 83.4216 335.201 84.0054 336.738C84.0054 336.738 84.0054 336.809 83.9237 336.738C82.4428 333.832 80.692 331.073 78.6945 328.496C78.623 328.444 78.7456 328.291 78.8171 328.414Z" fill="#263238"/>
<path d="M64.8659 327.096C65.0032 327.929 65.2505 328.739 65.6012 329.507C65.9572 330.249 66.3704 330.963 66.837 331.641C66.837 331.641 66.837 331.733 66.7656 331.692C65.6529 330.407 64.9425 328.823 64.7229 327.137C64.6514 327.025 64.8455 326.984 64.8659 327.096Z" fill="#263238"/>
<path d="M44.0412 332.836C44.0412 332.836 34.8492 321.295 17.1394 325.38C0.307905 329.313 -7.48483 360.157 9.49986 363.854C26.4845 367.551 23.5227 338.964 29.7222 334.113C34.3181 330.559 40.8648 331.355 44.0412 332.836Z" fill="#BEC120"/>
<path d="M3.44353 342.253C4.59889 341.24 5.82038 340.305 7.09989 339.455C8.29986 338.629 9.6097 337.976 10.9911 337.514C11.6761 336.461 12.4482 335.466 13.2993 334.542C14.8712 332.855 16.6893 331.416 18.692 330.273H18.1609C17.2212 330.273 16.2816 330.273 15.342 330.273C13.4527 330.394 11.6011 330.857 9.8779 331.641C9.77576 331.641 9.70427 331.529 9.8064 331.488C11.5537 330.728 13.3842 330.177 15.2603 329.844C16.1732 329.676 17.0999 329.594 18.0281 329.599C18.5285 329.599 19.0494 329.599 19.5192 329.691H19.8052C21.4298 328.871 23.1432 328.24 24.9118 327.811L24.4216 327.679C23.5418 327.491 22.6517 327.354 21.7559 327.27C19.9898 327.062 18.2039 327.09 16.445 327.352C16.3429 327.352 16.3123 327.199 16.445 327.178C18.2238 326.964 20.0168 326.892 21.807 326.964C23.3102 327.011 24.8051 327.206 26.2702 327.546C27.3358 327.346 28.4144 327.223 29.4976 327.178C35.6256 326.913 42.4174 329.221 46.2167 334.328C50.0161 339.434 50.7719 346.195 51.4459 352.334C52.4769 360.879 52.7026 369.503 52.12 378.091C52.12 378.602 51.3642 378.5 51.354 378.02C51.1191 370.738 50.8638 363.456 50.1693 356.194C49.8425 352.834 49.485 349.464 48.9233 346.134C48.5232 343.264 47.7007 340.47 46.4823 337.841C45.1703 335.13 43.0794 332.872 40.4769 331.355C37.8695 329.87 34.9624 328.987 31.9692 328.771C29.2946 328.549 26.6016 328.798 24.0131 329.507C24.0897 330.028 24.0897 330.558 24.0131 331.08C23.9498 331.738 23.8198 332.388 23.625 333.02C23.4274 333.613 23.1779 334.187 22.8794 334.736C22.5526 335.349 22.144 335.89 21.7764 336.472C21.7151 336.564 21.5721 336.472 21.6334 336.37C22.361 335.33 22.8333 334.134 23.0122 332.877C23.1245 332.28 23.1961 331.676 23.2267 331.069C23.2267 330.62 23.2267 330.15 23.2267 329.701C20.4155 330.564 17.7925 331.95 15.4952 333.786C15.056 334.133 14.6475 334.501 14.239 334.869C14.8206 335.414 15.3256 336.036 15.7403 336.717C16.3792 337.601 16.9365 338.541 17.4051 339.526C18.2246 341.486 18.7777 343.547 19.0494 345.654C19.0431 345.672 19.0314 345.688 19.0159 345.699C19.0003 345.71 18.9817 345.716 18.9626 345.716C18.9435 345.716 18.9249 345.71 18.9094 345.699C18.8938 345.688 18.8821 345.672 18.8758 345.654C18.5412 343.602 17.8499 341.625 16.8331 339.812C16.364 338.915 15.8387 338.049 15.2603 337.218C14.9641 336.789 14.6577 336.37 14.3309 335.962C14.1573 335.747 13.9632 335.522 13.7998 335.288C11.7153 337.328 10.0134 339.725 8.77486 342.365C9.60084 343.252 10.2894 344.257 10.8175 345.348C11.4836 346.514 12.0672 347.725 12.564 348.973C13.4215 351.333 14.1276 353.745 14.6781 356.194C14.6781 356.306 14.5352 356.337 14.5147 356.194C13.9763 353.716 13.1324 351.315 12.0023 349.045C11.4712 347.942 10.9094 346.849 10.3273 345.766C9.71007 344.78 9.15409 343.757 8.66252 342.702C7.47412 345.273 6.78113 348.045 6.61986 350.873C6.61986 350.985 6.43602 350.965 6.44623 350.873C6.77155 346.419 8.13572 342.102 10.4294 338.27C9.34681 338.729 8.25398 339.179 7.21223 339.741C5.8782 340.445 4.63927 341.317 3.52524 342.335C3.47417 342.457 3.37204 342.325 3.44353 342.253Z" fill="#263238"/>
<path d="M16.4447 342.907C16.9757 344.653 17.6498 346.359 18.1298 348.126C18.6174 349.82 18.8784 351.572 18.9061 353.334C18.9061 353.386 18.8346 353.386 18.8243 353.334C18.3471 349.795 17.4946 346.317 16.2812 342.958C16.2779 342.947 16.2767 342.936 16.2777 342.925C16.2787 342.913 16.2819 342.903 16.2871 342.893C16.2923 342.883 16.2995 342.874 16.3081 342.867C16.3167 342.859 16.3267 342.854 16.3374 342.851C16.3481 342.847 16.3594 342.846 16.3706 342.847C16.3818 342.848 16.3927 342.851 16.4027 342.856C16.4126 342.862 16.4215 342.869 16.4287 342.877C16.4359 342.886 16.4413 342.896 16.4447 342.907Z" fill="#263238"/>
<path d="M5.22013 338.566C5.91381 337.892 6.70586 337.327 7.56919 336.891C8.44383 336.489 9.35314 336.168 10.2859 335.931C10.3881 335.931 10.4187 336.074 10.2859 336.094C9.3698 336.332 8.49021 336.692 7.67132 337.167C6.83486 337.604 6.02951 338.099 5.26098 338.648C5.25576 338.655 5.24884 338.66 5.24089 338.664C5.23294 338.667 5.22422 338.669 5.21555 338.668C5.20688 338.667 5.19855 338.664 5.19136 338.659C5.18417 338.654 5.17835 338.648 5.17446 338.64C5.17056 338.632 5.16873 338.623 5.16912 338.615C5.16951 338.606 5.17212 338.598 5.17669 338.59C5.18127 338.583 5.18766 338.577 5.19527 338.572C5.20287 338.568 5.21143 338.566 5.22013 338.566Z" fill="#263238"/>
<path d="M35.3085 317.424C35.3085 317.424 33.6233 296.692 18.2013 289.971C5.33254 284.354 -2.03124 298.816 7.06879 307.671C14.4224 314.83 26.2289 311.603 35.3085 317.424Z" fill="#BEC120"/>
<path d="M9.91813 293.985C12.2651 294.93 14.5535 296.015 16.7712 297.233C18.6191 298.295 20.3965 299.475 22.0924 300.766C21.837 300.235 21.6123 299.684 21.357 299.173C20.9485 298.376 20.5195 297.59 20.0497 296.834C19.0993 295.268 17.9568 293.827 16.6487 292.545C16.5772 292.473 16.6487 292.351 16.7712 292.432C18.0762 293.716 19.2719 295.107 20.3459 296.589C20.8789 297.345 21.3699 298.129 21.8166 298.938C22.2624 299.682 22.6059 300.482 22.8379 301.318C22.8379 301.369 22.9503 301.4 23.0116 301.451C25.7037 303.592 28.1679 306.005 30.3651 308.651C30.3651 308.447 30.2834 308.242 30.2323 308.059C29.9464 307.037 29.6298 306.016 29.2927 305.046C28.6344 302.918 27.7005 300.885 26.5147 298.999C26.5039 298.981 26.501 298.958 26.5068 298.937C26.5125 298.916 26.5264 298.898 26.5454 298.887C26.5643 298.876 26.5868 298.873 26.6079 298.879C26.6289 298.885 26.6469 298.899 26.6577 298.918C27.8879 300.797 28.9802 302.763 29.9259 304.801C30.3419 305.795 30.6833 306.819 30.9473 307.865C31.1738 308.53 31.3446 309.213 31.4579 309.907C32.1218 310.755 32.7857 311.613 33.4087 312.501C40.0269 321.918 43.3462 333.316 44.1428 344.714C44.3743 348.113 44.4323 351.522 44.3165 354.927C44.2876 358.351 43.9836 361.766 43.4075 365.141C43.4075 365.355 43.0296 365.284 43.0398 365.079C43.1113 362.077 43.4279 359.094 43.479 356.102C43.5375 353.127 43.4455 350.151 43.2032 347.186C42.72 341.199 41.5934 335.282 39.843 329.537C38.0361 323.662 35.3835 318.082 31.9686 312.971C31.315 312.838 30.6715 312.665 30.0281 312.501L27.7301 311.889C26.2496 311.504 24.8097 310.977 23.4303 310.316C23.3282 310.265 23.4303 310.112 23.5222 310.163C24.8806 310.906 26.3552 311.414 27.8833 311.664C29.0885 311.899 30.3447 312.062 31.5499 312.338C30.4395 310.706 29.2428 309.134 27.965 307.63C25.0274 307.889 22.067 307.665 19.202 306.966C17.6772 306.607 16.1791 306.143 14.7184 305.577C13.166 304.974 11.6544 304.218 10.1837 303.534C10.0713 303.534 10.1837 303.32 10.2552 303.381C13.0135 304.888 16.0255 305.874 19.1407 306.292C21.8901 306.734 24.6696 306.963 27.4543 306.976C26.3615 305.72 25.2278 304.504 24.0227 303.35C19.9374 299.49 15.1678 295.956 9.83643 294.107C9.76493 294.107 9.816 293.944 9.91813 293.985Z" fill="#263238"/>
<path d="M22.4607 294.046C23.153 294.925 23.7842 295.849 24.3502 296.814C24.9298 297.828 25.3859 298.909 25.7086 300.031C25.7086 300.031 25.7086 300.082 25.6473 300.031C25.1366 299.01 24.6974 297.989 24.1766 296.967C23.6674 295.97 23.051 295.032 22.3382 294.169C22.2667 294.077 22.3892 293.965 22.4607 294.046Z" fill="#263238"/>
<path d="M47.289 313.686C47.3809 314.585 49.6176 306.159 62.6089 298.683C74.4461 291.891 88.571 274.232 76.9688 263.069C67.6542 254.071 42.9687 273.701 47.289 313.686Z" fill="#BEC120"/>
<path d="M38.3219 361.995C38.5017 353.231 39.1837 344.485 40.3645 335.798C41.3907 327.8 43.2354 319.929 45.8695 312.308C46.8908 309.571 47.9121 306.874 49.1479 304.219C49.0851 303.198 49.1022 302.173 49.199 301.155C49.2603 299.827 49.3829 298.51 49.5054 297.182C49.628 295.854 49.7607 294.537 49.9242 293.219C50.0876 291.902 50.3633 290.584 50.4144 289.267C50.4144 289.256 50.4165 289.245 50.4206 289.235C50.4247 289.225 50.4307 289.216 50.4383 289.209C50.4459 289.201 50.4549 289.195 50.4648 289.191C50.4747 289.187 50.4854 289.185 50.4961 289.185C50.5068 289.185 50.5175 289.187 50.5274 289.191C50.5373 289.195 50.5463 289.201 50.5539 289.209C50.5615 289.216 50.5675 289.225 50.5716 289.235C50.5757 289.245 50.5778 289.256 50.5778 289.267C50.3194 290.653 50.1624 292.056 50.108 293.464C50.0161 294.741 49.9344 296.028 49.9037 297.304C49.8731 298.581 49.9037 299.868 49.9037 301.155C49.9037 301.614 49.9037 302.105 49.9037 302.605C51.1293 300.011 52.4468 297.499 53.8665 294.976C52.9881 289.573 54.132 283.925 55.2351 278.635C55.2351 278.532 55.4189 278.573 55.3985 278.686C54.8573 281.445 54.5702 284.249 54.5406 287.061C54.5406 289.277 54.5916 291.493 54.6018 293.709C54.9185 293.178 55.2249 292.688 55.5415 292.126C57.2369 289.362 59.0412 286.666 60.9545 284.037C60.8044 282.755 60.8491 281.456 61.0873 280.187C61.2973 278.763 61.6114 277.357 62.0269 275.979C62.4456 274.6 62.9257 273.242 63.4772 271.894C64.0287 270.546 64.7845 269.218 65.336 267.809C65.3407 267.798 65.3473 267.789 65.3555 267.782C65.3637 267.774 65.3733 267.769 65.3837 267.765C65.3941 267.761 65.4052 267.759 65.4163 267.76C65.4274 267.76 65.4383 267.763 65.4483 267.768C65.4584 267.772 65.4674 267.779 65.4749 267.787C65.4824 267.795 65.4882 267.805 65.492 267.815C65.4958 267.826 65.4975 267.837 65.497 267.848C65.4966 267.859 65.4939 267.87 65.4892 267.88C64.7914 269.175 64.2431 270.546 63.8551 271.965C63.4325 273.305 63.0914 274.67 62.8337 276.051C62.558 277.419 62.3333 278.798 62.1392 280.136C62.0065 281.055 61.9248 282.005 61.7716 282.934C64.5583 279.184 67.606 275.634 70.892 272.313C70.9092 272.304 70.9284 272.302 70.9472 272.305C70.9659 272.308 70.9832 272.317 70.9966 272.331C71.0101 272.344 71.019 272.361 71.0222 272.38C71.0254 272.399 71.0228 272.418 71.0146 272.435C66.0386 278.019 61.5936 284.053 57.7373 290.462L57.3186 291.187C58.0437 290.737 58.8608 290.38 59.5349 290.002C60.8013 289.307 62.0677 288.603 63.3444 287.959C64.6211 287.316 65.8058 286.621 67.0314 285.917C67.6646 285.569 68.2876 285.202 68.9311 284.895C69.6976 284.546 70.4352 284.136 71.1371 283.67C71.2393 283.598 71.3414 283.751 71.2393 283.803C69.983 284.497 68.88 285.518 67.6646 286.295C66.4492 287.071 65.2032 287.816 63.947 288.521C61.6286 289.818 59.1059 290.748 56.7977 292.085C55.2146 294.853 53.7337 297.693 52.4162 300.583C53.795 299.694 55.2146 298.857 56.6445 298.05C57.5739 297.539 58.4931 297.029 59.4327 296.528C60.3662 296.104 61.2471 295.573 62.0575 294.945C62.1392 294.874 62.2516 294.996 62.1699 295.068C60.6567 296.437 58.9749 297.607 57.1654 298.551C55.4904 299.572 53.8052 300.481 52.0587 301.329C50.6697 304.393 49.4033 307.456 48.29 310.653C42.8055 326.188 40.7833 342.672 39.8232 359.054C39.5373 363.936 39.3943 368.818 39.333 373.7C39.2717 378.582 39.527 383.464 39.5168 388.346C39.5168 388.489 39.2819 388.519 39.2615 388.346C38.6691 384.015 38.567 379.613 38.3831 375.252C38.1993 370.891 38.23 366.418 38.3219 361.995Z" fill="#263238"/>
<path d="M62.0051 291.667C64.3816 290.609 66.6938 289.412 68.9297 288.082C71.1887 286.803 73.3807 285.408 75.4968 283.905C75.4968 283.905 75.5785 283.905 75.4968 283.966C73.4985 285.582 71.3894 287.057 69.185 288.378C66.8765 289.671 64.4886 290.817 62.0357 291.81C61.9846 291.85 61.9029 291.707 62.0051 291.667Z" fill="#263238"/>
<path d="M58.2284 274.1C58.4225 273.344 58.6574 272.599 58.9127 271.863C58.9127 271.863 58.9127 271.812 58.9127 271.782C59.0761 271.353 59.2497 270.944 59.4234 270.525L59.4846 270.372L59.5766 270.137L59.454 270.566C59.4349 270.649 59.411 270.731 59.3825 270.811C58.5413 273.713 57.9132 276.673 57.5033 279.666C57.5033 279.758 57.3399 279.768 57.3501 279.666C57.4643 277.787 57.7584 275.923 58.2284 274.1Z" fill="#263238"/>
<path d="M24.5544 365.131L25.4839 376.151L28.3334 409.763H58.8302L61.6695 376.151L62.5989 365.131H24.5544Z" fill="#455A64"/>
<path d="M24.5544 365.131L25.4839 376.151H61.6695L62.5989 365.131H24.5544Z" fill="#263238"/>
<path d="M21.5621 371.269H65.5916V360.698H21.5621V371.269Z" fill="#455A64"/>
<path d="M371.734 183.518C369.589 184.294 306.175 185.56 303.785 184.09C303.499 183.936 302.468 162.958 302.468 162.958C302.549 162.662 301.446 160.64 299.873 157.852C295.349 149.957 286.504 135.822 286.504 135.822L324.15 124.444L339.613 155.411L343.556 163.316C343.556 163.316 352.196 166.696 359.744 170.067C363.039 171.433 366.252 172.991 369.365 174.734C371.816 176.603 373.879 182.762 371.734 183.518Z" fill="#D3766A"/>
<path d="M371.735 183.518C369.59 184.294 306.176 185.561 303.786 184.09C303.5 183.937 302.469 162.959 302.469 162.959C302.55 162.663 301.447 160.64 299.875 157.852L339.614 155.411L343.557 163.316C343.557 163.316 352.197 166.697 359.745 170.067C363.04 171.433 366.253 172.992 369.366 174.735C371.817 176.604 373.88 182.762 371.735 183.518Z" fill="white"/>
<path d="M372 183.753C369.794 184.539 306.288 185.622 303.837 184.141C302.908 183.579 301.794 173.805 302.468 162.958L343.413 162.305C343.413 162.305 367.129 172.784 369.641 174.704C372.154 176.624 374.206 182.976 372 183.753Z" fill="#BEC120"/>
<path opacity="0.1" d="M320.454 184.856C311.415 184.856 304.613 184.601 303.837 184.141C302.908 183.579 301.794 173.805 302.468 162.959H303.49L320.454 184.856Z" fill="black"/>
<path d="M371.05 181.22C360.408 181.138 317.441 181.833 306.911 182.558C306.829 182.558 306.829 182.629 306.911 182.629C317.461 182.936 360.418 181.904 371.061 181.394C371.275 181.394 371.275 181.22 371.05 181.22Z" fill="#263238"/>
<path d="M365.514 172.498C364.33 172.484 363.156 172.718 362.068 173.184C360.979 173.65 360 174.338 359.192 175.204C357.722 176.745 356.902 178.794 356.904 180.924C356.904 180.985 357.027 180.985 357.037 180.924C357.359 178.809 358.36 176.856 359.889 175.36C361.418 173.864 363.393 172.906 365.514 172.631C365.596 172.62 365.596 172.498 365.514 172.498Z" fill="#263238"/>
<path d="M346.774 163.316C342.515 163.316 337.582 164.92 335.008 168.423C334.906 168.555 335.11 168.698 335.233 168.627C338.926 166.628 342.822 165.029 346.855 163.857C346.927 163.847 346.992 163.808 347.035 163.749C347.078 163.691 347.096 163.618 347.085 163.546C347.074 163.474 347.035 163.41 346.977 163.366C346.919 163.323 346.845 163.305 346.774 163.316Z" fill="#263238"/>
<path d="M350.083 164.542C345.824 164.542 340.891 166.145 338.318 169.648C338.226 169.781 338.42 169.924 338.542 169.852C342.234 167.836 346.13 166.22 350.165 165.032C350.212 165.005 350.249 164.964 350.272 164.915C350.295 164.866 350.303 164.812 350.294 164.758C350.285 164.705 350.26 164.656 350.222 164.617C350.185 164.578 350.136 164.552 350.083 164.542Z" fill="#263238"/>
<path d="M353.391 165.767C349.132 165.767 344.199 167.371 341.636 170.874C341.534 171.007 341.728 171.15 341.85 171.078C345.544 169.06 349.444 167.444 353.483 166.258C353.53 166.23 353.567 166.188 353.59 166.139C353.612 166.089 353.619 166.034 353.609 165.98C353.599 165.927 353.572 165.878 353.533 165.84C353.495 165.802 353.445 165.776 353.391 165.767Z" fill="#263238"/>
<path d="M356.752 166.993C352.483 166.993 347.56 168.596 344.987 172.1C344.885 172.232 345.079 172.375 345.201 172.304C348.87 170.301 352.743 168.696 356.752 167.514C356.813 167.502 356.867 167.469 356.906 167.422C356.945 167.374 356.966 167.315 356.966 167.253C356.966 167.192 356.945 167.132 356.906 167.085C356.867 167.037 356.813 167.005 356.752 166.993Z" fill="#263238"/>
<path d="M309.434 172.416C304.655 172.508 304.798 179.933 309.588 179.841C314.378 179.749 314.224 172.314 309.434 172.416Z" fill="#263238"/>
<path d="M351.185 151.867C348.999 150.121 346.303 151.867 345.006 153.787C342.844 157.06 341.576 160.842 341.329 164.756C341.329 164.838 341.39 164.879 341.462 164.869C341.478 164.949 341.513 165.025 341.565 165.089C341.616 165.153 341.682 165.204 341.757 165.237C341.832 165.27 341.914 165.284 341.996 165.279C342.078 165.274 342.158 165.249 342.228 165.206C345.231 163.051 348.703 161.121 350.95 158.118C352.257 156.361 353.248 153.522 351.185 151.867ZM346.078 161.059C344.628 162.162 343.137 163.173 341.727 164.317C342.387 162.163 343.154 160.042 344.025 157.965C344.465 156.967 344.966 155.998 345.527 155.064C346.436 153.644 350.552 149.957 351.052 154.635C351.369 157.137 347.835 159.711 346.109 161.008L346.078 161.059Z" fill="#263238"/>
<path d="M330.769 166.513C334.487 167.024 338.296 165.9 341.932 165.267C342.01 165.246 342.083 165.207 342.143 165.152C342.203 165.098 342.25 165.031 342.28 164.956C342.31 164.88 342.321 164.799 342.314 164.718C342.307 164.638 342.281 164.56 342.239 164.491C342.252 164.479 342.262 164.465 342.269 164.449C342.277 164.433 342.28 164.416 342.28 164.399C342.28 164.382 342.277 164.364 342.269 164.348C342.262 164.333 342.252 164.318 342.239 164.307C339.279 161.725 335.694 159.965 331.842 159.2C329.584 158.812 326.429 159.466 326.143 162.264C325.857 165.063 328.594 166.217 330.769 166.513ZM328.155 164.133C325.203 160.528 330.687 160.14 332.332 160.497C333.396 160.74 334.44 161.061 335.457 161.457C337.546 162.293 339.591 163.234 341.585 164.276C339.777 164.481 338.01 164.828 336.213 165.093C334.089 165.41 329.779 166.125 328.155 164.133Z" fill="#263238"/>
<path d="M297.004 157.423L341.666 150.652C341.666 150.652 320.218 107.868 306.941 84.6536C299.557 71.7441 279.365 71.1108 269.51 86.584C256.355 107.245 246.162 126.6 240.32 137.303L230.188 138.171L232.374 154.717L266.078 162.254C278.977 163.807 288.026 140.806 288.241 141.235C289.824 144.279 297.004 157.423 297.004 157.423Z" fill="#023527"/>
<path d="M288.436 141.388C287.159 138.784 286.168 136.026 285.045 133.361L281.766 125.629C279.581 120.41 277.314 115.212 275.189 109.972C273.994 107.031 272.901 104.049 271.788 101.076C271.788 101.005 271.645 101.076 271.666 101.076C272.534 103.885 273.432 106.694 274.372 109.472C274.117 108.992 273.872 108.512 273.606 108.042C272.891 106.765 272.156 105.499 271.41 104.232H271.339C272.023 105.509 272.707 106.775 273.381 108.032C273.729 108.665 274.117 109.278 274.495 109.901C277.095 117.718 280.189 125.363 283.758 132.789C285.178 135.699 286.822 138.488 288.262 141.398C288.323 141.541 288.477 141.46 288.436 141.388Z" fill="#263238"/>
<path d="M298.005 149.477C295.85 146.158 290.722 136.108 288.884 132.625C285.177 125.598 281.735 118.418 278.558 111.177C276.74 107.092 275.045 102.925 273.36 98.7578C275.926 106.254 278.868 113.617 282.174 120.819C285.442 128.039 296.013 147.485 297.913 149.589C297.943 149.64 298.066 149.559 298.005 149.477Z" fill="#263238"/>
<path d="M270.285 104.283C266.435 111.157 262.503 117.979 258.642 124.843C256.692 128.305 254.731 131.778 252.8 135.25C251.891 136.894 251.013 138.549 250.063 140.163C249.257 141.692 248.035 142.963 246.54 143.829C244.749 144.679 242.873 145.333 240.943 145.78C238.767 146.413 236.612 147.097 234.427 147.7C234.324 147.7 234.376 147.874 234.427 147.853C236.367 147.332 238.328 146.832 240.289 146.403C242.088 146.02 243.864 145.539 245.61 144.963C247.159 144.453 248.528 143.506 249.552 142.236C250.603 140.781 251.529 139.24 252.32 137.63C256.215 130.603 260.045 123.525 263.81 116.396C265.975 112.362 268.11 108.318 270.285 104.304C270.326 104.283 270.296 104.263 270.285 104.283Z" fill="#263238"/>
<path d="M295.993 151.152C298.669 150.662 301.406 150.437 304.103 150.131L312.222 149.11C317.615 148.405 335.989 145.474 337.378 145.024C337.396 145.018 337.411 145.006 337.422 144.991C337.433 144.975 337.439 144.956 337.439 144.937C337.439 144.918 337.433 144.9 337.422 144.884C337.411 144.869 337.396 144.857 337.378 144.851C336.06 144.851 324.029 146.413 321.332 146.812C315.94 147.608 310.578 148.558 305.195 149.467C303.663 149.722 302.131 150.019 300.599 150.294C299.067 150.57 297.536 150.897 296.004 151.091C295.999 151.075 295.989 151.062 295.976 151.053C295.963 151.043 295.947 151.039 295.931 151.04C295.914 151.041 295.899 151.047 295.887 151.058C295.875 151.069 295.867 151.083 295.864 151.099C295.862 151.115 295.865 151.132 295.872 151.146C295.88 151.16 295.893 151.171 295.908 151.177C295.923 151.183 295.939 151.184 295.955 151.18C295.97 151.175 295.984 151.165 295.993 151.152Z" fill="#263238"/>
<path d="M322.772 197.561C322.057 195.406 283.777 144.82 281.163 143.85C280.856 143.717 263.749 155.901 263.749 155.901C263.045 156.841 230.515 149.967 230.515 149.967L230.188 189.207L289.425 187.951C289.425 187.951 297.422 192.649 304.745 196.489C307.858 198.238 311.075 199.797 314.376 201.156C317.389 201.882 323.497 199.675 322.772 197.561Z" fill="#D3766A"/>
<path d="M314.428 201.116C311.122 199.765 307.905 198.206 304.797 196.448C297.484 192.618 289.477 187.9 289.477 187.9L276.292 188.186L255.64 154.87C260.165 155.677 263.545 156.157 263.811 155.891C263.811 155.891 280.918 143.717 281.225 143.85C283.839 144.82 322.078 195.396 322.834 197.561C323.589 199.727 317.39 201.882 314.428 201.116Z" fill="white"/>
<path d="M323.12 197.561C322.364 195.345 283.911 144.799 281.245 143.788C280.224 143.41 271.859 148.578 263.77 155.829L288.599 188.389C288.599 188.389 311.507 200.523 314.571 201.309C317.635 202.096 323.875 199.808 323.12 197.561Z" fill="#BEC120"/>
<path d="M320.545 198.399C313.886 190.085 287.863 155.922 281.888 147.2C281.888 147.128 281.888 147.087 281.949 147.2C288.72 155.299 314.499 189.666 320.688 198.338C320.811 198.481 320.688 198.583 320.545 198.399Z" fill="#263238"/>
<path d="M310.261 199.471C309.518 198.548 308.975 197.48 308.667 196.335C308.359 195.19 308.294 193.994 308.474 192.822C308.769 190.716 309.867 188.806 311.538 187.491C311.589 187.491 311.661 187.542 311.61 187.593C310.152 189.158 309.241 191.154 309.013 193.28C308.784 195.407 309.251 197.55 310.343 199.389C310.349 199.401 310.35 199.414 310.348 199.426C310.346 199.439 310.34 199.45 310.331 199.459C310.322 199.468 310.311 199.474 310.298 199.476C310.286 199.478 310.273 199.477 310.261 199.471Z" fill="#263238"/>
<path d="M291.448 190.412C288.823 187.052 287.026 182.241 288.2 177.993C288.2 177.829 288.476 177.901 288.507 177.993C289.204 182.14 290.344 186.201 291.908 190.106C291.948 190.166 291.963 190.241 291.949 190.313C291.934 190.385 291.892 190.448 291.831 190.489C291.77 190.529 291.696 190.544 291.624 190.53C291.552 190.515 291.489 190.473 291.448 190.412Z" fill="#263238"/>
<path d="M294.451 192.271C291.826 188.921 290.028 184.1 291.203 179.851C291.203 179.688 291.479 179.759 291.499 179.902C292.205 184.049 293.348 188.11 294.91 192.015C294.933 192.075 294.934 192.141 294.912 192.201C294.89 192.261 294.847 192.311 294.791 192.342C294.735 192.373 294.67 192.383 294.608 192.37C294.545 192.357 294.489 192.322 294.451 192.271Z" fill="#263238"/>
<path d="M297.515 194.109C294.89 190.759 293.092 185.939 294.267 181.7C294.267 181.537 294.543 181.598 294.563 181.7C295.269 185.847 296.412 189.907 297.974 193.813C298.014 193.874 298.027 193.948 298.012 194.019C297.996 194.09 297.954 194.152 297.893 194.191C297.832 194.23 297.758 194.244 297.687 194.228C297.616 194.213 297.554 194.17 297.515 194.109Z" fill="#263238"/>
<path d="M300.487 195.958C297.862 192.598 296.064 187.787 297.239 183.538C297.239 183.375 297.514 183.447 297.535 183.538C298.241 187.685 299.384 191.746 300.946 195.651C300.987 195.712 301.001 195.787 300.987 195.859C300.973 195.931 300.93 195.994 300.87 196.034C300.809 196.075 300.734 196.09 300.662 196.075C300.59 196.061 300.527 196.019 300.487 195.958Z" fill="#263238"/>
<path d="M275.484 155.472C272.604 151.663 278.548 147.179 281.408 150.999C284.267 154.819 278.374 159.292 275.484 155.472Z" fill="#263238"/>
<path d="M289.958 196.928C290.928 193.303 290.285 189.381 290.121 185.694C290.111 185.609 290.079 185.527 290.03 185.457C289.98 185.387 289.914 185.33 289.837 185.292C289.761 185.253 289.675 185.234 289.59 185.237C289.504 185.239 289.42 185.263 289.345 185.306C289.336 185.291 289.323 185.279 289.308 185.27C289.293 185.262 289.276 185.257 289.258 185.257C289.241 185.257 289.224 185.262 289.209 185.27C289.193 185.279 289.181 185.291 289.172 185.306C286.244 187.918 284.06 191.259 282.839 194.988C282.165 197.163 282.421 200.391 285.148 201.024C287.874 201.657 289.345 199.043 289.958 196.928ZM287.303 199.226C283.36 201.688 283.656 196.162 284.239 194.62C284.625 193.599 285.075 192.603 285.587 191.638C286.68 189.669 287.873 187.756 289.161 185.908C289.161 187.716 289.253 189.524 289.294 191.331C289.274 193.476 289.437 197.858 287.303 199.226Z" fill="#263238"/>
<path d="M277.885 174.867C275.843 176.818 277.314 179.708 279.019 181.23C281.986 183.792 285.576 185.529 289.426 186.265C289.444 186.269 289.461 186.268 289.478 186.263C289.495 186.258 289.511 186.25 289.524 186.238C289.537 186.226 289.547 186.211 289.553 186.194C289.559 186.178 289.561 186.16 289.559 186.143C289.641 186.135 289.72 186.108 289.789 186.064C289.859 186.02 289.916 185.96 289.958 185.889C290 185.819 290.025 185.739 290.03 185.657C290.035 185.575 290.021 185.493 289.988 185.418C288.231 182.17 286.751 178.483 284.054 175.878C282.481 174.357 279.785 173.049 277.885 174.867ZM286.322 181.046C287.22 182.619 288.037 184.223 288.997 185.765C286.955 184.744 284.912 183.886 282.982 182.701C282.045 182.139 281.148 181.515 280.296 180.832C278.999 179.76 275.914 175.215 280.572 175.296C283.135 175.347 285.259 179.177 286.281 181.046H286.322Z" fill="#263238"/>
<path d="M247.52 140.857C247.52 140.857 182.595 129.459 164.129 133.218C138.371 138.437 133.632 168.903 152.741 180.199C176.998 194.62 274.432 191.832 274.432 191.832L251.146 152.378C251.146 152.378 215.328 144.83 182.85 145.923L247.806 155.85L247.52 140.857Z" fill="#023527"/>
<path d="M252.7 154.921C252.673 154.855 252.656 154.787 252.648 154.717C252.648 154.665 252.648 154.604 252.648 154.553C252.648 154.502 252.577 154.298 252.546 154.165C252.468 153.905 252.376 153.649 252.271 153.399C252.175 153.142 252.066 152.889 251.944 152.643C251.82 152.4 251.677 152.168 251.515 151.949H251.454H251.392H251.331C247.399 151.213 220.63 147.394 216.657 146.934C212.684 146.474 208.619 146.107 204.595 145.77C196.563 145.072 188.502 144.782 180.441 144.902L178.173 144.963C178.02 144.963 177.846 144.881 177.683 144.84C177.295 144.748 176.907 144.656 176.519 144.585C175.794 144.442 175.058 144.34 174.333 144.228C172.801 143.993 171.269 143.829 169.758 143.543C169.739 143.543 169.72 143.551 169.707 143.564C169.694 143.578 169.686 143.596 169.686 143.615C169.686 143.634 169.694 143.652 169.707 143.665C169.72 143.679 169.739 143.686 169.758 143.686C171.279 144.023 172.821 144.462 174.302 144.799L175.62 145.075C172.668 145.239 169.727 145.463 166.775 145.729C166.683 145.729 166.683 145.882 166.775 145.872C170.789 145.637 174.823 145.606 178.847 145.678C182.871 145.749 186.824 145.831 190.807 146.066C198.865 146.525 206.913 147.251 214.941 148.109C219.445 148.578 246.735 152.562 251.259 152.745C251.259 152.848 251.331 152.95 251.382 153.052C251.433 153.154 251.637 153.542 251.77 153.777C251.903 154.012 252.025 154.237 252.168 154.461L252.393 154.788L252.505 154.951C252.554 155.003 252.596 155.062 252.628 155.125C252.577 155.074 252.751 155.013 252.7 154.921Z" fill="#263238"/>
<path d="M266.027 189.391C264.587 187.093 263.361 184.631 262.044 182.241L258.06 175.092C255.415 170.333 245.907 154.349 244.967 153.225C244.906 153.154 244.783 153.225 244.814 153.317C245.263 154.563 251.197 165.144 252.566 167.504C255.293 172.222 258.163 176.849 260.992 181.516C261.809 182.844 262.646 184.151 263.463 185.479C264.28 186.807 265.148 188.104 265.904 189.462C265.945 189.595 266.078 189.513 266.027 189.391Z" fill="#263238"/>
<path d="M244.702 157.26C242.322 156.688 239.891 156.32 237.481 155.861L230.26 154.502C225.446 153.61 220.622 152.756 215.788 151.939C206.147 150.315 196.475 148.977 186.741 148.037C181.257 147.516 175.752 147.169 170.247 146.76C170.135 146.76 170.135 146.944 170.247 146.944C180.052 147.384 189.836 148.711 199.539 150.11C209.241 151.51 218.729 153.001 228.309 154.615L236.408 156.004C239.156 156.484 241.893 157.025 244.661 157.413C244.763 157.433 244.804 157.28 244.702 157.26Z" fill="#263238"/>
<path d="M236.634 79.9859C238.513 91.7006 248.482 128.08 259.103 131.961C266.038 134.504 302.244 132.411 308.127 126.262C310.711 123.576 307.586 100.678 303.613 100.964C299.64 101.25 271.472 106.009 268.745 104.794C266.018 103.579 253.149 79.7204 246.173 70.7736C235.429 56.9958 235.215 70.7736 236.634 79.9859Z" fill="#D3766A"/>
<path d="M240.851 101.883L260.747 90.2603C260.747 90.2603 252.576 77.3814 246.04 69.7623C239.503 62.1431 233.876 60.3558 235.52 76.023C236.369 84.8085 238.157 93.4779 240.851 101.883Z" fill="#263238"/>
<path d="M252.382 140.367C251.31 141.245 191.194 135.086 190.939 134.668C190.244 133.534 202.766 96.4599 210.865 82.7128C221.242 65.0847 225.96 63.9714 228.789 63.2054C232.405 62.1841 238.329 63.0012 241.045 64.9621C242.557 66.0447 246.622 74.9405 248.001 81.9672C250.779 96.0513 253.311 139.56 252.382 140.367Z" fill="#BEC120"/>
<path d="M239.554 73.327C236.123 74.1542 230.209 68.9353 227.87 64.6967C227.707 64.4006 228.146 61.3264 228.493 57.5474C228.698 55.2699 228.871 52.7166 228.861 50.3982C228.861 49.9181 243.517 53.8911 243.517 53.8911C242.694 56.8129 242.231 59.8243 242.138 62.8583C242.145 63.1807 242.18 63.5018 242.241 63.8184C242.247 63.8693 242.247 63.9207 242.241 63.9716C242.567 65.81 242.864 72.5201 239.554 73.327Z" fill="#D3766A"/>
<path d="M229.76 50.49C230.454 54.4323 232.946 63.9511 240.76 64.0941C241.261 64.1051 241.763 64.0778 242.261 64.0124C242.268 63.9581 242.268 63.9032 242.261 63.849C242.196 63.5328 242.158 63.2116 242.149 62.8889C242.241 59.8541 242.708 56.8423 243.538 53.9217C243.538 53.9217 232.936 51.0313 229.76 50.49Z" fill="#263238"/>
<path d="M229.638 31.0849C227.065 35.8647 226.809 51.1029 229.771 55.1065C234.061 60.9179 242.568 63.0933 247.869 57.5883C252.976 52.2672 252.976 32.3922 249.544 28.6031C244.468 22.996 233.438 23.9969 229.638 31.0849Z" fill="#D3766A"/>
<path d="M241.209 44.6785C241.209 44.6785 241.127 44.6785 241.127 44.7704C241.127 45.7917 240.974 46.9765 240.044 47.2931V47.3543C241.188 47.2216 241.341 45.6487 241.209 44.6785Z" fill="#263238"/>
<path d="M240.321 43.5857C238.676 43.4223 238.472 46.7314 240.004 46.8846C241.536 47.0378 241.699 43.7287 240.321 43.5857Z" fill="#263238"/>
<path d="M246.939 45.0564C246.939 45.0564 247.021 45.1177 247.021 45.1585C246.918 46.1799 247.021 47.3646 247.889 47.7629V47.8242C246.755 47.5893 246.694 46.0164 246.939 45.0564Z" fill="#263238"/>
<path d="M247.92 44.0454C249.584 44.0454 249.503 47.3341 247.971 47.3545C246.439 47.3749 246.541 44.0658 247.92 44.0454Z" fill="#263238"/>
<path d="M238.952 40.8795C239.404 40.8622 239.854 40.8144 240.3 40.7365C240.784 40.7573 241.262 40.6173 241.658 40.3382C241.766 40.2272 241.833 40.0836 241.85 39.9301C241.866 39.7766 241.831 39.6219 241.75 39.4905C241.551 39.2518 241.292 39.0709 240.999 38.9667C240.706 38.8625 240.39 38.8388 240.085 38.8981C239.454 38.9256 238.854 39.1836 238.4 39.6233C238.305 39.7313 238.242 39.8645 238.22 40.0071C238.197 40.1496 238.216 40.2956 238.274 40.4277C238.332 40.5598 238.427 40.6725 238.547 40.7526C238.667 40.8326 238.807 40.8767 238.952 40.8795Z" fill="#263238"/>
<path d="M249.582 41.7271C249.146 41.6087 248.716 41.4655 248.296 41.2981C247.82 41.2188 247.384 40.9813 247.06 40.624C246.976 40.4916 246.94 40.3348 246.956 40.1791C246.973 40.0233 247.042 39.8778 247.152 39.7661C247.397 39.577 247.688 39.4573 247.996 39.4196C248.303 39.3819 248.615 39.4275 248.898 39.5516C249.503 39.6989 250.033 40.0621 250.389 40.573C250.474 40.6995 250.518 40.8486 250.516 41.0007C250.515 41.1529 250.467 41.301 250.38 41.4256C250.293 41.5503 250.17 41.6458 250.028 41.6996C249.886 41.7534 249.73 41.7629 249.582 41.7271Z" fill="#263238"/>
<path d="M240.178 51.0924C240.413 51.515 240.733 51.8842 241.118 52.1761C241.503 52.4681 241.945 52.6764 242.415 52.7878C242.824 52.8991 243.248 52.9439 243.671 52.9205C243.749 52.9309 243.828 52.9309 243.906 52.9205H244.131C244.187 52.9145 244.239 52.8902 244.28 52.8514C244.32 52.8126 244.347 52.7615 244.356 52.7061V52.5324V52.4405C244.427 51.6541 244.427 50.3979 244.427 50.3979C244.703 50.5613 246.133 51.3171 246.133 50.8983C246.255 47.36 246.019 43.8184 245.428 40.3276C245.421 40.3071 245.408 40.2893 245.391 40.2767C245.374 40.2641 245.353 40.2573 245.331 40.2573C245.31 40.2573 245.289 40.2641 245.271 40.2767C245.254 40.2893 245.241 40.3071 245.234 40.3276C245.101 43.6265 245.551 46.9151 245.469 50.2242C244.958 49.9501 244.411 49.7473 243.845 49.6217C243.733 49.6217 243.896 51.9503 243.845 52.3077C243.201 52.3382 242.557 52.2392 241.952 52.0164C241.347 51.7936 240.792 51.4516 240.321 51.0107C240.209 50.9494 240.127 51.0107 240.178 51.0924Z" fill="#263238"/>
<path d="M243.22 52.5326C242.754 53.0722 242.156 53.4807 241.483 53.7174C241.115 53.8348 240.718 53.8348 240.35 53.7174C239.543 53.4518 239.573 52.6961 239.757 52.0628C239.866 51.7285 240.01 51.4067 240.186 51.1028C241.021 51.8885 242.083 52.3891 243.22 52.5326Z" fill="#263238"/>
<path d="M241.483 53.6765C241.115 53.7939 240.718 53.7939 240.35 53.6765C239.543 53.411 239.573 52.6552 239.757 52.022C240.19 52.0601 240.597 52.2449 240.911 52.5457C241.225 52.8466 241.427 53.2455 241.483 53.6765Z" fill="#FF98B9"/>
<path d="M228.228 44.7295C231.394 45.6385 234.611 32.0037 234.611 32.0037C236.226 33.4017 238.044 34.5451 240.004 35.3946C242.037 36.1125 244.143 36.6024 246.285 36.8551C246.765 36.8551 241.883 33.1374 241.883 33.1374C244.892 34.4047 248.126 35.0508 251.391 35.0371C253.832 34.8941 253.7 33.8523 253.802 33.0557C253.904 32.2591 250.789 24.0272 240.913 23.0773C238.916 22.9339 236.915 23.2869 235.089 24.1049C233.262 24.9229 231.666 26.1804 230.444 27.7652C230.444 27.7652 225.899 30.8292 225.429 33.0966C224.786 36.1197 224.888 43.7694 228.228 44.7295Z" fill="#263238"/>
<path d="M246.367 45.5367C246.53 43.208 247.919 41.4514 249.431 41.5229C250.943 41.5944 252.086 43.5655 251.923 45.935C251.76 48.3045 250.371 50.0203 248.859 49.9386C247.347 49.8569 246.204 47.8551 246.367 45.5367ZM246.929 45.5367C246.786 47.5793 247.664 49.2543 248.89 49.336C250.115 49.4177 251.229 47.8551 251.371 45.8533C251.514 43.8515 250.636 42.1357 249.411 42.0437C248.185 41.9518 247.082 43.5655 246.929 45.5775V45.5367Z" fill="#455A64"/>
<path d="M235.786 44.7805C235.891 44.0168 236.218 43.3007 236.726 42.7203C237.233 42.14 237.899 41.7207 238.642 41.5141C239.385 41.3076 240.172 41.3227 240.906 41.5578C241.64 41.7928 242.29 42.2374 242.774 42.8369C243.259 43.4363 243.558 44.1645 243.634 44.9316C243.71 45.6988 243.561 46.4715 243.203 47.1546C242.846 47.8377 242.296 48.4013 241.623 48.7761C240.949 49.1509 240.18 49.3206 239.412 49.2641C238.337 49.1483 237.352 48.6114 236.673 47.7711C235.993 46.9308 235.674 45.8554 235.786 44.7805ZM236.348 44.7805C236.353 45.4374 236.55 46.0784 236.914 46.6251C237.279 47.1719 237.794 47.6007 238.398 47.8591C239.002 48.1176 239.668 48.1944 240.315 48.0804C240.962 47.9663 241.562 47.6662 242.041 47.2167C242.52 46.7673 242.858 46.188 243.013 45.5497C243.168 44.9114 243.134 44.2417 242.915 43.6224C242.695 43.0032 242.3 42.4613 241.778 42.063C241.256 41.6646 240.628 41.4271 239.973 41.3794C239.038 41.3547 238.131 41.7021 237.451 42.3455C236.771 42.9888 236.374 43.8756 236.348 44.8111V44.7805Z" fill="#455A64"/>
<path d="M243.486 44.944C245.641 44.3516 246.55 45.1176 246.55 45.1176L246.928 44.6989C246.928 44.6989 245.815 43.6775 243.323 44.4027L243.486 44.944Z" fill="#455A64"/>
<path d="M236.092 44.4231L236.235 43.8818C235.878 43.7899 227.391 41.5838 226.461 41.4714C225.532 41.3591 223.091 42.4928 222.825 42.5949L223.071 43.1056C224.097 42.5692 225.205 42.2035 226.349 42.023C227.105 42.1251 233.049 43.6367 236.092 44.4231Z" fill="#455A64"/>
<path d="M230.383 43.6677C230.383 43.6677 227.901 38.2955 225.521 39.1023C223.142 39.9092 224.408 47.273 226.777 48.6722C227.07 48.8726 227.399 49.0119 227.747 49.0819C228.094 49.1519 228.452 49.1512 228.799 49.0796C229.146 49.0081 229.475 48.8674 229.767 48.6657C230.058 48.4641 230.306 48.2058 230.495 47.9062L230.383 43.6677Z" fill="#D3766A"/>
<path d="M225.929 41.1958C225.929 41.1958 225.929 41.1958 225.929 41.2673C227.584 42.2886 228.227 44.127 228.574 45.9654C228.502 45.7713 228.39 45.5948 228.244 45.4478C228.098 45.3008 227.923 45.1867 227.729 45.1131C227.536 45.0396 227.329 45.0083 227.122 45.0215C226.916 45.0346 226.714 45.0918 226.532 45.1892C226.47 45.1892 226.532 45.2913 226.532 45.2913C226.862 45.2488 227.197 45.3093 227.491 45.4647C227.786 45.6202 228.025 45.8628 228.176 46.1595C228.427 46.6608 228.622 47.1882 228.758 47.7323C228.819 47.9059 229.116 47.8651 229.095 47.671C229.524 45.3832 228.329 41.8699 225.929 41.1958Z" fill="#263238"/>
<path d="M265.241 118.817C265.241 122.585 254.558 121.636 251.893 121.962C249.227 122.289 248.829 122.984 250.177 123.76C250.455 123.891 250.746 123.994 251.045 124.066C246.898 123.208 233.192 118.429 233.192 118.429C233.192 118.429 241.424 115.702 245.785 114.823C250.146 113.945 265.252 115.028 265.241 118.817Z" fill="#D3766A"/>
<path d="M290.865 99.432C293.003 97.4999 295.345 95.808 297.851 94.3866C301.181 92.681 308.606 89.617 309.872 88.6876L312.18 88.1667L304.664 138.671L284.891 147.516L249.042 143.798L254.077 96.1229L256.416 95.5612C256.416 95.5612 260.992 96.2148 264.719 96.3782C268.447 96.5416 280.999 94.9279 290.865 99.432Z" fill="white"/>
<path d="M282.031 149.222L288.2 100.739L252.525 95.8574L247.214 145.167L282.031 149.222Z" fill="#BEC120"/>
<path opacity="0.1" d="M282.031 149.222L288.2 100.739L252.525 95.8574L247.214 145.167L282.031 149.222Z" fill="black"/>
<path d="M282.033 149.222L287.027 148.66L293.247 100.177L288.202 100.739L282.033 149.222Z" fill="#BEC120"/>
<path d="M287.026 148.66L293.246 100.178L313.121 87.5745L305.328 139.029L287.026 148.66Z" fill="#BEC120"/>
<path opacity="0.1" d="M287.026 148.66L293.246 100.178L313.121 87.5745L305.328 139.029L287.026 148.66Z" fill="black"/>
<path d="M212.07 75.4822C204.543 83.9081 180.338 119.072 183.575 129.868C185.7 136.946 225.164 146.801 233.62 147.864C237.318 148.323 242.169 122.913 239.564 119.91C236.96 116.907 213.184 116.846 212.53 113.894C211.876 110.943 224.194 84.4801 226.216 74.5528C229.76 57.2719 216.83 70.1304 212.07 75.4822Z" fill="#D3766A"/>
<path d="M273.422 133.78C273.248 137.109 268.08 138.222 267.723 138.284C268.039 138.284 272.635 137.793 272.227 141.102C271.818 144.412 267.273 146.291 267.273 146.291C267.273 146.291 268.795 147.077 267.416 149.355C265.425 152.623 257.203 153.614 252.822 153.123C248.44 152.633 232.64 147.567 230.24 146.74L233.171 118.429C233.171 118.429 246.877 123.209 251.024 124.067H251.085C253.95 124.739 256.852 125.237 259.777 125.558C264.424 125.885 270.817 122.494 271.594 125.864C272.298 128.877 267.631 130.797 267.631 130.797C267.631 130.797 273.606 130.338 273.422 133.78Z" fill="#D3766A"/>
<path d="M267.397 130.787C260.717 133.013 257.408 132.83 250.688 131.165C250.663 131.163 250.639 131.17 250.618 131.183C250.598 131.197 250.582 131.217 250.574 131.24C250.566 131.263 250.566 131.288 250.573 131.311C250.581 131.335 250.596 131.355 250.616 131.369C257.05 133.595 261.166 134.433 267.519 131.103C267.825 130.94 267.713 130.685 267.397 130.787Z" fill="#263238"/>
<path d="M267.979 138.13C260.829 139.836 257.255 139.662 250.085 138.447C249.983 138.447 249.942 138.6 250.085 138.621C257.02 140.408 261.146 141.143 268.05 138.508C268.316 138.386 268.305 138.049 267.979 138.13Z" fill="#263238"/>
<path d="M267.181 146.25C260.154 147.404 256.212 147.384 249.4 145.31C249.37 145.308 249.34 145.315 249.315 145.332C249.29 145.348 249.271 145.372 249.262 145.401C249.252 145.429 249.253 145.46 249.263 145.488C249.273 145.516 249.293 145.54 249.318 145.555C256.049 148.344 260.961 148.405 267.191 146.464C267.61 146.342 267.62 146.178 267.181 146.25Z" fill="#263238"/>
<path d="M312.764 101.607C315 104.794 319.913 108.389 320.7 111.167C320.927 111.842 320.93 112.572 320.71 113.249C320.489 113.927 320.055 114.514 319.474 114.926C319.474 114.926 322.538 115.855 322.875 118.5C323.049 119.859 321.026 121.329 321.026 121.329C321.71 121.576 322.313 122.007 322.767 122.575C323.221 123.143 323.509 123.825 323.6 124.546C323.723 126.426 321.68 127.61 321.68 127.61C321.68 127.61 323.631 129.5 323.13 131.461C322.109 135.444 306.146 138.171 302.704 132.707C301.09 130.154 305.032 129.704 305.032 129.704C305.032 129.704 299.201 128.989 298.557 125.711C297.914 122.432 303.061 122.146 303.061 122.146C303.061 122.146 297.423 121.401 297.097 117.928C296.77 114.456 301.958 114.915 301.958 114.915C301.958 114.915 297.995 113.118 298.353 110.401C298.945 105.917 306.585 110.125 309.955 108.685L310.905 102.557L312.764 101.607Z" fill="#D3766A"/>
<path d="M316.829 106.091C314.97 102.894 318.483 97.9204 317.145 94.6317C315.338 90.1378 310.874 95.6019 310.864 102.567L311.814 107.98L316.829 106.091Z" fill="#D3766A"/>
<path d="M321.383 127.845C321.434 127.845 321.465 127.906 321.383 127.927C316.152 130.215 310.349 130.856 304.745 129.765C304.572 129.765 304.551 129.418 304.745 129.428C310.339 129.714 315.944 129.181 321.383 127.845Z" fill="#100E3A"/>
<path d="M321.106 121.35C321.168 121.35 321.198 121.432 321.106 121.462C315.311 123.924 308.827 124.232 302.824 122.33C302.62 122.259 302.508 121.983 302.753 122.044C306.91 123.147 316.03 122.667 321.106 121.35Z" fill="#100E3A"/>
<path d="M301.529 114.64C307.412 116.437 313.274 116.172 319.269 115.028C319.341 115.028 319.361 115.13 319.269 115.16C316.491 116.519 312.6 116.846 309.546 116.846C306.711 116.884 303.915 116.18 301.437 114.803C301.365 114.834 301.406 114.599 301.529 114.64Z" fill="#100E3A"/>
<path d="M198.068 90.5979L219.383 99.4324C219.383 99.4324 224.704 85.1338 226.798 75.3189C228.891 65.5039 226.91 59.9173 215.389 70.7331C208.927 76.7211 203.12 83.3802 198.068 90.5979Z" fill="#263238"/>
<path d="M283.656 23.6602C282.921 28.2459 278.968 32.0759 278.968 32.0759C278.968 32.0759 273.535 31.1771 270.328 27.8068C267.642 25.0083 267.57 21.0966 269.919 19.5034C273.29 17.2156 276.262 23.3946 276.262 23.3946C276.262 23.3946 275.189 16.6232 279.264 16.5824C282.104 16.5619 284.238 19.8506 283.656 23.6602Z" fill="#BEC120"/>
<path d="M265.241 43.4022C263.373 44.8747 261.13 45.7946 258.766 46.0577C257.208 44.2642 256.182 42.071 255.804 39.7255C255.549 36.927 257.275 34.6699 259.328 34.8333C262.269 35.058 261.166 39.9399 261.166 39.9399C261.166 39.9399 263.628 35.6197 265.946 37.4377C267.57 38.6837 267.315 41.5026 265.241 43.4022Z" fill="#BEC120"/>
<path d="M262.645 3.50914C262.003 4.77535 261.02 5.83668 259.806 6.57312C258.502 5.99958 257.384 5.07272 256.579 3.89724C255.721 2.43674 256.089 0.761767 257.243 0.322596C258.897 -0.300414 259.541 2.62058 259.541 2.62058C259.541 2.62058 259.776 -0.361696 261.502 0.0366217C262.707 0.302167 263.299 1.90565 262.645 3.50914Z" fill="#BEC120"/>
<path d="M173.415 41.0881H12.085V178.967H173.415V41.0881Z" fill="#BEC120"/>
<path opacity="0.7" d="M173.415 41.0881H12.085V178.967H173.415V41.0881Z" fill="white"/>
<path d="M173.415 41.0881H12.085V48.105H173.415V41.0881Z" fill="#BEC120"/>
<path opacity="0.2" d="M173.416 48.1121H168.082V179.098H173.416V48.1121Z" fill="black"/>
<path opacity="0.6" d="M171.047 51.2146H170.561C169.809 51.2146 169.199 51.7649 169.199 52.4438V68.2336C169.199 68.9125 169.809 69.4628 170.561 69.4628H171.047C171.799 69.4628 172.409 68.9125 172.409 68.2336V52.4438C172.409 51.7649 171.799 51.2146 171.047 51.2146Z" fill="white"/>
<path opacity="0.2" d="M164.555 138.636H15.4006C15.2937 138.635 15.1918 138.595 15.1162 138.527C15.0407 138.459 14.9973 138.367 14.9952 138.271C14.9952 138.174 15.0379 138.081 15.1139 138.012C15.19 137.943 15.2931 137.905 15.4006 137.905H164.555C164.663 137.905 164.766 137.943 164.842 138.012C164.918 138.081 164.96 138.174 164.96 138.271C164.96 138.368 164.918 138.461 164.842 138.529C164.766 138.598 164.663 138.636 164.555 138.636Z" fill="black"/>
<path opacity="0.2" d="M164.555 107.174H15.4006C15.2937 107.172 15.1918 107.133 15.1162 107.065C15.0407 106.996 14.9973 106.904 14.9952 106.808C14.9952 106.711 15.0379 106.618 15.1139 106.549C15.19 106.481 15.2931 106.442 15.4006 106.442H164.555C164.663 106.442 164.766 106.481 164.842 106.549C164.918 106.618 164.96 106.711 164.96 106.808C164.96 106.905 164.918 106.998 164.842 107.067C164.766 107.135 164.663 107.174 164.555 107.174Z" fill="black"/>
<path d="M164.563 51.207H15.4413V71.7894H164.563V51.207Z" fill="#BEC120"/>
<path opacity="0.6" d="M171.558 44.6003C171.558 44.949 171.444 45.29 171.229 45.5799C171.014 45.8699 170.709 46.0959 170.352 46.2294C169.995 46.3629 169.602 46.3978 169.223 46.3297C168.845 46.2617 168.496 46.0938 168.223 45.8472C167.95 45.6005 167.764 45.2863 167.689 44.9443C167.613 44.6022 167.652 44.2477 167.8 43.9255C167.948 43.6033 168.198 43.3279 168.519 43.1341C168.84 42.9403 169.218 42.8369 169.605 42.8369C170.123 42.8369 170.62 43.0227 170.986 43.3534C171.352 43.6841 171.558 44.1326 171.558 44.6003Z" fill="white"/>
<path opacity="0.6" d="M164.669 44.6003C164.669 44.949 164.554 45.29 164.339 45.5799C164.125 45.8699 163.82 46.0959 163.463 46.2294C163.106 46.3629 162.713 46.3978 162.334 46.3297C161.955 46.2617 161.607 46.0938 161.334 45.8472C161.06 45.6005 160.874 45.2863 160.799 44.9443C160.724 44.6022 160.762 44.2477 160.91 43.9255C161.058 43.6033 161.308 43.3279 161.63 43.1341C161.951 42.9403 162.329 42.8369 162.715 42.8369C163.233 42.8369 163.73 43.0227 164.096 43.3534C164.463 43.6841 164.669 44.1326 164.669 44.6003Z" fill="white"/>
<path opacity="0.6" d="M157.778 44.6003C157.778 44.949 157.663 45.29 157.449 45.5799C157.234 45.8699 156.929 46.0959 156.572 46.2294C156.215 46.3629 155.822 46.3978 155.443 46.3297C155.064 46.2617 154.716 46.0938 154.443 45.8472C154.17 45.6005 153.984 45.2863 153.908 44.9443C153.833 44.6022 153.872 44.2477 154.02 43.9255C154.167 43.6033 154.418 43.3279 154.739 43.1341C155.06 42.9403 155.438 42.8369 155.824 42.8369C156.343 42.8369 156.839 43.0227 157.206 43.3534C157.572 43.6841 157.778 44.1326 157.778 44.6003Z" fill="white"/>
<path opacity="0.4" d="M21.8275 85.5743C20.8832 85.5743 19.9601 85.3216 19.1749 84.848C18.3898 84.3745 17.7778 83.7014 17.4164 82.9139C17.055 82.1265 16.9605 81.2599 17.1447 80.4239C17.329 79.588 17.7837 78.8201 18.4514 78.2173C19.1192 77.6146 19.9699 77.2042 20.8961 77.0379C21.8223 76.8716 22.7823 76.9569 23.6547 77.2831C24.5271 77.6093 25.2728 78.1617 25.7975 78.8704C26.3221 79.5791 26.6021 80.4123 26.6021 81.2647C26.6 82.4071 26.0963 83.5021 25.2013 84.3099C24.3064 85.1177 23.0932 85.5724 21.8275 85.5743Z" fill="black"/>
<path d="M22.4127 79.626V82.8966H21.6021V80.2333H20.8806V79.626H22.4127Z" fill="white"/>
<path opacity="0.4" d="M158.11 77.0869H31.0935C30.5832 77.0869 30.1694 77.4604 30.1694 77.921V78.4405C30.1694 78.9012 30.5832 79.2746 31.0935 79.2746H158.11C158.62 79.2746 159.034 78.9012 159.034 78.4405V77.921C159.034 77.4604 158.62 77.0869 158.11 77.0869Z" fill="black"/>
<path opacity="0.4" d="M158.11 82.7725H31.0935C30.5832 82.7725 30.1694 83.1459 30.1694 83.6066V84.1261C30.1694 84.5868 30.5832 84.9602 31.0935 84.9602H158.11C158.62 84.9602 159.034 84.5868 159.034 84.1261V83.6066C159.034 83.1459 158.62 82.7725 158.11 82.7725Z" fill="black"/>
<path opacity="0.4" d="M114.174 88.4502H31.0935C30.5832 88.4502 30.1694 88.8236 30.1694 89.2843V89.8038C30.1694 90.2645 30.5832 90.6379 31.0935 90.6379H114.174C114.685 90.6379 115.098 90.2645 115.098 89.8038V89.2843C115.098 88.8236 114.685 88.4502 114.174 88.4502Z" fill="black"/>
<path opacity="0.2" d="M32.3912 101.349C33.6134 101.349 34.6042 100.455 34.6042 99.352C34.6042 98.2488 33.6134 97.3545 32.3912 97.3545C31.169 97.3545 30.1782 98.2488 30.1782 99.352C30.1782 100.455 31.169 101.349 32.3912 101.349Z" fill="black"/>
<path d="M33.9147 99.3522C33.9163 99.6263 33.8276 99.8947 33.6599 100.123C33.4922 100.352 33.253 100.53 32.9727 100.636C32.6924 100.741 32.3837 100.769 32.0858 100.716C31.7878 100.663 31.5141 100.531 31.2993 100.337C31.0846 100.143 30.9385 99.8964 30.8796 99.6275C30.8208 99.3585 30.8518 99.0799 30.9688 98.8269C31.0857 98.5739 31.2833 98.358 31.5365 98.2066C31.7897 98.0552 32.087 97.9751 32.3907 97.9766C32.7949 97.9766 33.1826 98.1215 33.4684 98.3795C33.7542 98.6374 33.9147 98.9873 33.9147 99.3522Z" fill="white"/>
<path opacity="0.4" d="M61.0713 98.262H39.6222C39.1118 98.262 38.6981 98.6354 38.6981 99.0961V99.6156C38.6981 100.076 39.1118 100.45 39.6222 100.45H61.0713C61.5817 100.45 61.9954 100.076 61.9954 99.6156V99.0961C61.9954 98.6354 61.5817 98.262 61.0713 98.262Z" fill="black"/>
<path opacity="0.2" d="M79.5702 99.3083C79.5702 99.7034 79.4404 100.09 79.1972 100.418C78.954 100.747 78.6084 101.003 78.204 101.154C77.7997 101.305 77.3547 101.344 76.9254 101.267C76.4962 101.19 76.1018 101 75.7923 100.721C75.4828 100.441 75.2721 100.085 75.1867 99.698C75.1013 99.3105 75.1451 98.9089 75.3126 98.5439C75.4801 98.1789 75.7638 97.8669 76.1277 97.6474C76.4916 97.4279 76.9195 97.3108 77.3572 97.3108C77.9441 97.3108 78.507 97.5212 78.922 97.8958C79.337 98.2704 79.5702 98.7785 79.5702 99.3083Z" fill="black"/>
<path d="M78.8883 99.3082C78.89 99.582 78.8015 99.8501 78.6341 100.078C78.4667 100.307 78.228 100.485 77.9482 100.591C77.6684 100.697 77.3601 100.725 77.0624 100.673C76.7647 100.62 76.4909 100.489 76.2758 100.296C76.0608 100.103 75.914 99.8564 75.8543 99.588C75.7945 99.3195 75.8244 99.0411 75.9401 98.788C76.0558 98.5349 76.2522 98.3185 76.5043 98.1662C76.7564 98.0139 77.0529 97.9326 77.3563 97.9326C77.7612 97.9326 78.1497 98.0773 78.4368 98.3351C78.7238 98.5928 78.8862 98.9427 78.8883 99.3082Z" fill="#BEC120"/>
<path opacity="0.4" d="M106.053 98.218H84.5958C84.0854 98.218 83.6716 98.5915 83.6716 99.0521V99.5716C83.6716 100.032 84.0854 100.406 84.5958 100.406H106.053C106.563 100.406 106.977 100.032 106.977 99.5716V99.0521C106.977 98.5915 106.563 98.218 106.053 98.218Z" fill="black"/>
<path opacity="0.2" d="M124.543 99.2643C124.543 99.6594 124.413 100.046 124.17 100.374C123.926 100.703 123.581 100.959 123.176 101.11C122.772 101.261 122.327 101.301 121.898 101.223C121.469 101.146 121.074 100.956 120.765 100.677C120.455 100.397 120.244 100.042 120.159 99.654C120.074 99.2666 120.118 98.8649 120.285 98.4999C120.453 98.1349 120.736 97.823 121.1 97.6035C121.464 97.384 121.892 97.2668 122.33 97.2668C122.916 97.2668 123.479 97.4773 123.894 97.8519C124.309 98.2265 124.543 98.7346 124.543 99.2643Z" fill="black"/>
<path d="M123.862 99.2645C123.862 99.538 123.772 99.8053 123.604 100.033C123.435 100.26 123.196 100.437 122.916 100.542C122.636 100.647 122.328 100.674 122.031 100.621C121.734 100.567 121.461 100.436 121.246 100.242C121.032 100.049 120.886 99.8025 120.827 99.5343C120.768 99.266 120.798 98.988 120.914 98.7353C121.03 98.4826 121.227 98.2666 121.479 98.1146C121.731 97.9627 122.027 97.8816 122.33 97.8816C122.736 97.8816 123.126 98.0273 123.413 98.2866C123.7 98.546 123.862 98.8977 123.862 99.2645Z" fill="white"/>
<path opacity="0.4" d="M151.018 98.1667H129.569C129.059 98.1667 128.645 98.5402 128.645 99.0009V99.5204C128.645 99.981 129.059 100.354 129.569 100.354H151.018C151.529 100.354 151.943 99.981 151.943 99.5204V99.0009C151.943 98.5402 151.529 98.1667 151.018 98.1667Z" fill="black"/>
<path opacity="0.4" d="M21.8275 122.027C24.4645 122.027 26.6021 120.098 26.6021 117.718C26.6021 115.337 24.4645 113.408 21.8275 113.408C19.1906 113.408 17.053 115.337 17.053 117.718C17.053 120.098 19.1906 122.027 21.8275 122.027Z" fill="black"/>
<path d="M23.2066 118.764V119.378H20.4747V118.881L21.869 117.688C22.1933 117.41 22.25 117.242 22.25 117.088C22.25 116.935 22.0555 116.679 21.6664 116.679C21.5217 116.674 21.378 116.702 21.248 116.759C21.1179 116.817 21.0055 116.902 20.9206 117.008L20.3126 116.649C20.4783 116.45 20.6959 116.29 20.9461 116.184C21.1963 116.078 21.4714 116.029 21.7474 116.042C22.5581 116.042 23.0931 116.415 23.0931 117.008C23.0884 117.211 23.0309 117.41 22.9253 117.589C22.8197 117.768 22.6689 117.923 22.4851 118.04L21.6745 118.771L23.2066 118.764Z" fill="white"/>
<path opacity="0.4" d="M158.11 113.562H31.0935C30.5832 113.562 30.1694 113.935 30.1694 114.396V114.915C30.1694 115.376 30.5832 115.749 31.0935 115.749H158.11C158.62 115.749 159.034 115.376 159.034 114.915V114.396C159.034 113.935 158.62 113.562 158.11 113.562Z" fill="black"/>
<path opacity="0.4" d="M55.2339 119.239H31.0935C30.5832 119.239 30.1694 119.613 30.1694 120.073V120.593C30.1694 121.054 30.5832 121.427 31.0935 121.427H55.2339C55.7443 121.427 56.158 121.054 56.158 120.593V120.073C56.158 119.613 55.7443 119.239 55.2339 119.239Z" fill="black"/>
<path opacity="0.2" d="M32.3912 132.051C33.6134 132.051 34.6042 131.157 34.6042 130.054C34.6042 128.951 33.6134 128.056 32.3912 128.056C31.169 128.056 30.1782 128.951 30.1782 130.054C30.1782 131.157 31.169 132.051 32.3912 132.051Z" fill="black"/>
<path d="M32.3915 131.437C33.2376 131.437 33.9235 130.818 33.9235 130.054C33.9235 129.29 33.2376 128.671 32.3915 128.671C31.5453 128.671 30.8594 129.29 30.8594 130.054C30.8594 130.818 31.5453 131.437 32.3915 131.437Z" fill="white"/>
<path opacity="0.4" d="M61.0713 128.964H39.6222C39.1118 128.964 38.6981 129.337 38.6981 129.798V130.317C38.6981 130.778 39.1118 131.151 39.6222 131.151H61.0713C61.5817 131.151 61.9954 130.778 61.9954 130.317V129.798C61.9954 129.337 61.5817 128.964 61.0713 128.964Z" fill="black"/>
<path opacity="0.2" d="M77.3572 132.007C78.5794 132.007 79.5702 131.113 79.5702 130.01C79.5702 128.907 78.5794 128.012 77.3572 128.012C76.135 128.012 75.1442 128.907 75.1442 130.01C75.1442 131.113 76.135 132.007 77.3572 132.007Z" fill="black"/>
<path d="M77.3563 131.393C78.2025 131.393 78.8884 130.774 78.8884 130.01C78.8884 129.246 78.2025 128.627 77.3563 128.627C76.5102 128.627 75.8242 129.246 75.8242 130.01C75.8242 130.774 76.5102 131.393 77.3563 131.393Z" fill="white"/>
<path opacity="0.4" d="M106.053 128.912H84.5958C84.0854 128.912 83.6716 129.286 83.6716 129.746V130.266C83.6716 130.727 84.0854 131.1 84.5958 131.1H106.053C106.563 131.1 106.977 130.727 106.977 130.266V129.746C106.977 129.286 106.563 128.912 106.053 128.912Z" fill="black"/>
<path opacity="0.2" d="M124.543 129.966C124.543 130.361 124.413 130.747 124.17 131.076C123.926 131.404 123.581 131.66 123.176 131.811C122.772 131.963 122.327 132.002 121.898 131.925C121.469 131.848 121.074 131.658 120.765 131.378C120.455 131.099 120.244 130.743 120.159 130.356C120.074 129.968 120.118 129.567 120.285 129.202C120.453 128.837 120.736 128.525 121.1 128.305C121.464 128.086 121.892 127.969 122.33 127.969C122.916 127.969 123.479 128.179 123.894 128.554C124.309 128.928 124.543 129.436 124.543 129.966Z" fill="black"/>
<path d="M123.862 129.966C123.862 130.239 123.772 130.507 123.604 130.734C123.435 130.962 123.196 131.139 122.916 131.244C122.636 131.348 122.328 131.376 122.031 131.322C121.734 131.269 121.461 131.137 121.246 130.944C121.032 130.75 120.886 130.504 120.827 130.236C120.768 129.967 120.798 129.689 120.914 129.437C121.03 129.184 121.227 128.968 121.479 128.816C121.731 128.664 122.027 128.583 122.33 128.583C122.736 128.583 123.126 128.729 123.413 128.988C123.7 129.247 123.862 129.599 123.862 129.966Z" fill="#BEC120"/>
<path opacity="0.4" d="M151.018 128.868H129.569C129.059 128.868 128.645 129.242 128.645 129.703V130.222C128.645 130.683 129.059 131.056 129.569 131.056H151.018C151.529 131.056 151.943 130.683 151.943 130.222V129.703C151.943 129.242 151.529 128.868 151.018 128.868Z" fill="black"/>
<path opacity="0.4" d="M21.8275 153.68C20.8832 153.68 19.9601 153.427 19.1749 152.953C18.3898 152.48 17.7778 151.807 17.4164 151.019C17.055 150.232 16.9605 149.365 17.1447 148.529C17.329 147.693 17.7837 146.926 18.4514 146.323C19.1192 145.72 19.9699 145.31 20.8961 145.143C21.8223 144.977 22.7823 145.062 23.6547 145.389C24.5271 145.715 25.2728 146.267 25.7975 146.976C26.3221 147.685 26.6021 148.518 26.6021 149.37C26.6021 150.513 26.0991 151.609 25.2037 152.418C24.3083 153.226 23.0938 153.68 21.8275 153.68Z" fill="black"/>
<path d="M23.1739 149.978C23.1739 150.526 22.7037 151.031 21.6742 151.031C21.1862 151.042 20.706 150.919 20.2961 150.68L20.6204 150.102C20.9218 150.293 21.2815 150.396 21.6499 150.395C22.0714 150.395 22.3308 150.241 22.3308 149.978C22.3308 149.714 22.1281 149.575 21.6499 149.575H21.2689V149.078L22.0147 148.346H20.4745V147.739H23.0361V148.229L22.2254 149.07C22.4807 149.087 22.7198 149.189 22.8955 149.357C23.0711 149.525 23.1704 149.747 23.1739 149.978Z" fill="white"/>
<path opacity="0.4" d="M158.11 145.185H31.0935C30.5832 145.185 30.1694 145.559 30.1694 146.019V146.539C30.1694 147 30.5832 147.373 31.0935 147.373H158.11C158.62 147.373 159.034 147 159.034 146.539V146.019C159.034 145.559 158.62 145.185 158.11 145.185Z" fill="black"/>
<path opacity="0.4" d="M158.11 150.863H31.0935C30.5832 150.863 30.1694 151.236 30.1694 151.697V152.217C30.1694 152.677 30.5832 153.051 31.0935 153.051H158.11C158.62 153.051 159.034 152.677 159.034 152.217V151.697C159.034 151.236 158.62 150.863 158.11 150.863Z" fill="black"/>
<path opacity="0.4" d="M94.7193 156.548H31.0935C30.5832 156.548 30.1694 156.922 30.1694 157.382V157.902C30.1694 158.362 30.5832 158.736 31.0935 158.736H94.7193C95.2297 158.736 95.6434 158.362 95.6434 157.902V157.382C95.6434 156.922 95.2297 156.548 94.7193 156.548Z" fill="black"/>
<path opacity="0.4" d="M79.2459 165.592H75.4684C75.2893 165.592 75.1442 165.723 75.1442 165.884V169.294C75.1442 169.456 75.2893 169.587 75.4684 169.587H79.2459C79.425 169.587 79.5702 169.456 79.5702 169.294V165.884C79.5702 165.723 79.425 165.592 79.2459 165.592Z" fill="black"/>
<path d="M79.042 169.111V166.075H75.6779V169.111H79.042Z" fill="white"/>
<path opacity="0.4" d="M106.053 166.499H84.5958C84.0854 166.499 83.6716 166.872 83.6716 167.333V167.853C83.6716 168.313 84.0854 168.687 84.5958 168.687H106.053C106.563 168.687 106.977 168.313 106.977 167.853V167.333C106.977 166.872 106.563 166.499 106.053 166.499Z" fill="black"/>
<path d="M77.1785 168.467C77.1529 168.468 77.1274 168.464 77.1037 168.455C77.08 168.446 77.0585 168.433 77.0407 168.416L76.2301 167.728C76.1924 167.693 76.1714 167.646 76.1714 167.597C76.1714 167.548 76.1924 167.5 76.2301 167.465C76.249 167.447 76.2716 167.433 76.2967 167.424C76.3218 167.414 76.3487 167.409 76.376 167.409C76.4032 167.409 76.4302 167.414 76.4553 167.424C76.4803 167.433 76.503 167.447 76.5219 167.465L77.2109 168.028L78.3863 166.77C78.4207 166.732 78.4704 166.708 78.5243 166.703C78.5783 166.698 78.6322 166.713 78.6741 166.744C78.716 166.775 78.7426 166.82 78.7479 166.869C78.7532 166.918 78.7369 166.966 78.7025 167.004L77.3487 168.402C77.3129 168.437 77.264 168.461 77.2109 168.467H77.1785Z" fill="#BEC120"/>
<path opacity="0.4" d="M124.218 165.548H120.441C120.262 165.548 120.117 165.679 120.117 165.841V169.25C120.117 169.412 120.262 169.543 120.441 169.543H124.218C124.397 169.543 124.543 169.412 124.543 169.25V165.841C124.543 165.679 124.397 165.548 124.218 165.548Z" fill="black"/>
<path d="M124.007 169.067V166.031H120.643V169.067H124.007Z" fill="white"/>
<path opacity="0.4" d="M151.018 166.448H129.569C129.059 166.448 128.645 166.821 128.645 167.282V167.801C128.645 168.262 129.059 168.635 129.569 168.635H151.018C151.529 168.635 151.943 168.262 151.943 167.801V167.282C151.943 166.821 151.529 166.448 151.018 166.448Z" fill="black"/>
<path d="M122.152 168.423C122.101 168.421 122.053 168.403 122.014 168.372L121.204 167.677C121.18 167.662 121.16 167.642 121.146 167.62C121.131 167.597 121.122 167.572 121.12 167.546C121.117 167.52 121.12 167.493 121.129 167.469C121.139 167.444 121.154 167.421 121.174 167.402C121.194 167.383 121.218 167.368 121.245 167.358C121.272 167.349 121.301 167.344 121.329 167.345C121.358 167.346 121.387 167.353 121.413 167.365C121.439 167.376 121.461 167.393 121.479 167.414L122.16 167.977L123.344 166.718C123.36 166.697 123.38 166.679 123.404 166.665C123.429 166.651 123.456 166.642 123.484 166.639C123.512 166.635 123.541 166.637 123.568 166.644C123.596 166.651 123.621 166.663 123.643 166.68C123.665 166.696 123.683 166.717 123.695 166.74C123.708 166.763 123.714 166.789 123.715 166.814C123.716 166.84 123.711 166.866 123.7 166.89C123.689 166.913 123.673 166.935 123.652 166.953L122.339 168.357C122.3 168.393 122.248 168.417 122.193 168.423H122.152Z" fill="#BEC120"/>
<path opacity="0.4" d="M34.2712 165.635H30.4937C30.3146 165.635 30.1694 165.767 30.1694 165.928V169.338C30.1694 169.499 30.3146 169.63 30.4937 169.63H34.2712C34.4503 169.63 34.5954 169.499 34.5954 169.338V165.928C34.5954 165.767 34.4503 165.635 34.2712 165.635Z" fill="black"/>
<path d="M34.0685 169.155V166.119H30.7044V169.155H34.0685Z" fill="white"/>
<path opacity="0.4" d="M61.0713 166.543H39.6222C39.1118 166.543 38.6981 166.916 38.6981 167.377V167.897C38.6981 168.357 39.1118 168.731 39.6222 168.731H61.0713C61.5817 168.731 61.9954 168.357 61.9954 167.897V167.377C61.9954 166.916 61.5817 166.543 61.0713 166.543Z" fill="black"/>
<path d="M22.5908 60.8439C22.5551 60.2836 22.7066 59.7266 23.0257 59.2449C23.3448 58.7632 23.8167 58.3791 24.3804 58.1423C24.9442 57.9055 25.5737 57.8269 26.1874 57.9168C26.8012 58.0066 27.3709 58.2607 27.8228 58.6462C28.2747 59.0317 28.588 59.5308 28.7221 60.0788C28.8561 60.6268 28.8048 61.1986 28.5747 61.72C28.3446 62.2414 27.9464 62.6884 27.4316 63.0031C26.9168 63.3179 26.3092 63.4859 25.6874 63.4853C25.289 63.5063 24.8901 63.4535 24.5152 63.3302C24.1403 63.2068 23.7972 63.0156 23.5072 62.7682C23.2172 62.5208 22.9863 62.2225 22.8287 61.8916C22.6711 61.5606 22.5901 61.2041 22.5908 60.8439ZM27.4546 60.8439C27.4482 60.5283 27.3386 60.2215 27.1397 59.9618C26.9408 59.7022 26.6614 59.5014 26.3365 59.3846C26.0116 59.2678 25.6557 59.2402 25.3135 59.3053C24.9713 59.3704 24.658 59.5252 24.413 59.7505C24.1679 59.9757 24.0021 60.2612 23.9361 60.5712C23.8702 60.8812 23.9072 61.2019 24.0425 61.493C24.1778 61.7841 24.4053 62.0326 24.6965 62.2075C24.9877 62.3823 25.3296 62.4756 25.6793 62.4756C25.9174 62.4818 26.1544 62.4437 26.3755 62.3636C26.5967 62.2835 26.7971 62.1632 26.9644 62.0101C27.1317 61.857 27.2623 61.6745 27.348 61.4739C27.4338 61.2732 27.4728 61.0588 27.4627 60.8439H27.4546Z" fill="white"/>
<path d="M34.126 61.1508V63.3971H32.8696V61.3264C32.8696 60.6898 32.5453 60.3972 31.986 60.3972C31.4267 60.3972 30.9403 60.7337 30.9403 61.4581V63.3971H29.6838V59.4679H30.8836V59.9289C31.0704 59.756 31.2954 59.6205 31.544 59.531C31.7925 59.4415 32.0591 59.4001 32.3265 59.4094C32.5785 59.3943 32.8311 59.4299 33.0659 59.5138C33.3008 59.5977 33.512 59.7278 33.6843 59.8945C33.8566 60.0612 33.9856 60.2604 34.062 60.4777C34.1384 60.695 34.1603 60.9249 34.126 61.1508Z" fill="white"/>
<path d="M35.2682 57.9829H36.5247V63.3974H35.2682V57.9829Z" fill="white"/>
<path d="M37.5468 58.2902C37.5483 58.1987 37.5711 58.1085 37.6138 58.0256C37.6565 57.9426 37.7181 57.8686 37.7946 57.8086C37.8711 57.7485 37.9607 57.7037 38.0577 57.677C38.1547 57.6503 38.2568 57.6423 38.3574 57.6537C38.4564 57.6401 38.5575 57.6458 38.6539 57.6703C38.7503 57.6947 38.8399 57.7375 38.9166 57.7956C38.9933 57.8538 39.0554 57.926 39.0987 58.0075C39.1421 58.089 39.1657 58.1779 39.168 58.2683C39.1213 58.4233 39.0195 58.5601 38.8781 58.6577C38.7367 58.7552 38.5637 58.8081 38.3858 58.8081C38.2078 58.8081 38.0348 58.7552 37.8934 58.6577C37.7521 58.5601 37.6502 58.4233 37.6035 58.2683L37.5468 58.2902ZM37.7008 59.4682H38.9653V63.3974H37.7008V59.4682Z" fill="white"/>
<path d="M44.5819 61.1508V63.3971H43.3011V61.3264C43.3011 60.6898 42.9769 60.3972 42.4175 60.3972C41.8582 60.3972 41.3799 60.7337 41.3799 61.4581V63.3971H40.1154V59.4679H41.3232V59.9289C41.5082 59.7558 41.7317 59.6201 41.979 59.5306C42.2263 59.441 42.4917 59.3997 42.758 59.4094C43.0116 59.3922 43.2662 59.4262 43.5034 59.5091C43.7406 59.5919 43.9543 59.7215 44.1291 59.8883C44.3038 60.0551 44.4351 60.255 44.5134 60.4734C44.5918 60.6918 44.6151 60.9232 44.5819 61.1508Z" fill="white"/>
<path d="M50.0055 61.7581H46.7143C46.7813 62.0019 46.9439 62.2155 47.1719 62.3594C47.3999 62.5034 47.678 62.5679 47.9546 62.541C48.1554 62.5478 48.3556 62.5183 48.5435 62.4542C48.7314 62.3901 48.9033 62.2928 49.0489 62.1679L49.7218 62.8191C49.4915 63.0374 49.2111 63.2075 48.9002 63.3175C48.5893 63.4275 48.2555 63.4746 47.9222 63.4557C47.6094 63.4831 47.2936 63.4514 46.9951 63.3626C46.6966 63.2737 46.4219 63.1297 46.1885 62.9397C45.9551 62.7497 45.7682 62.5179 45.6396 62.259C45.511 62.0001 45.4436 61.7199 45.4417 61.4362C45.438 61.1629 45.4963 60.8918 45.613 60.6395C45.7297 60.3873 45.9023 60.1593 46.1202 59.9695C46.3381 59.7796 46.5966 59.632 46.88 59.5357C47.1635 59.4394 47.4657 59.3964 47.7682 59.4094C48.0692 59.3958 48.37 59.4393 48.6512 59.537C48.9324 59.6348 49.1879 59.7847 49.401 59.977C49.6141 60.1694 49.7801 60.3999 49.8884 60.6538C49.9968 60.9076 50.0449 61.1791 50.0298 61.4508C50.0298 61.5386 50.0136 61.663 50.0055 61.7581ZM46.6981 61.0923H48.8382C48.7942 60.865 48.6628 60.659 48.467 60.5105C48.2713 60.362 48.0238 60.2806 47.7682 60.2806C47.5125 60.2806 47.265 60.362 47.0693 60.5105C46.8736 60.659 46.7422 60.865 46.6981 61.0923Z" fill="white"/>
<path d="M54.4167 59.2483H52.609V58.2898H57.5376V59.2483H55.7299V63.397H54.4167V59.2483Z" fill="white"/>
<path d="M61.9465 61.7583H58.6554C58.7224 62.002 58.8849 62.2156 59.1129 62.3596C59.341 62.5035 59.619 62.568 59.8957 62.5412C60.0964 62.5479 60.2966 62.5184 60.4846 62.4543C60.6725 62.3902 60.8443 62.2929 60.99 62.168L61.6628 62.8192C61.4326 63.0375 61.1521 63.2076 60.8412 63.3176C60.5303 63.4276 60.1965 63.4748 59.8632 63.4558C59.5504 63.4832 59.2347 63.4516 58.9362 63.3627C58.6377 63.2739 58.3629 63.1299 58.1295 62.9399C57.8962 62.7498 57.7092 62.518 57.5806 62.2591C57.452 62.0003 57.3846 61.72 57.3827 61.4363C57.3791 61.1637 57.4372 60.8932 57.5534 60.6415C57.6696 60.3898 57.8414 60.1621 58.0584 59.9724C58.2754 59.7826 58.533 59.6349 58.8155 59.5381C59.0979 59.4413 59.3993 59.3976 59.7011 59.4096C60.0028 59.3949 60.3045 59.4376 60.5867 59.5348C60.8689 59.6321 61.1253 59.7819 61.3393 59.9743C61.5533 60.1668 61.7201 60.3977 61.8289 60.6521C61.9377 60.9065 61.9861 61.1786 61.9709 61.451C61.9465 61.5388 61.9465 61.6632 61.9465 61.7583ZM58.6392 61.0924H60.7792C60.7352 60.8651 60.6038 60.6591 60.4081 60.5106C60.2124 60.3622 59.9649 60.2807 59.7092 60.2807C59.4535 60.2807 59.2061 60.3622 59.0104 60.5106C58.8146 60.6591 58.6832 60.8651 58.6392 61.0924Z" fill="white"/>
<path d="M62.3846 63.0314L62.8062 62.2192C63.2669 62.4604 63.7894 62.589 64.322 62.5924C64.9057 62.5924 65.1326 62.4533 65.1326 62.2412C65.1326 61.5973 62.4981 62.2412 62.4981 60.6827C62.4981 59.951 63.2439 59.4095 64.5166 59.4095C65.096 59.3994 65.6693 59.5175 66.1865 59.7534L65.7649 60.5656C65.3856 60.3684 64.9543 60.2673 64.5166 60.2729C63.9491 60.2729 63.706 60.4339 63.706 60.6388C63.706 61.3119 66.3324 60.6388 66.3324 62.2119C66.3324 62.9436 65.5785 63.4558 64.2815 63.4558C63.6187 63.4683 62.9642 63.3219 62.3846 63.0314Z" fill="white"/>
<path d="M69.9072 63.207C69.5995 63.3815 69.2407 63.4682 68.8777 63.4558C68.6633 63.4835 68.4447 63.4667 68.2386 63.4068C68.0324 63.3469 67.8441 63.2454 67.6878 63.11C67.5316 62.9746 67.4115 62.8089 67.3368 62.6254C67.262 62.4419 67.2346 62.2455 67.2564 62.051V60.434H66.5836V59.5559H67.2564V58.6047H68.5129V59.5559H69.5991V60.434H68.5129V62.0363C68.5029 62.1038 68.5098 62.1725 68.5332 62.2373C68.5565 62.302 68.5958 62.3612 68.6479 62.4104C68.7001 62.4596 68.7639 62.4975 68.8345 62.5215C68.9052 62.5454 68.9809 62.5546 69.056 62.5485C69.2393 62.5506 69.4184 62.4993 69.5667 62.4022L69.9072 63.207Z" fill="white"/>
<path d="M155.885 65.6836C158.395 63.4177 158.395 59.7439 155.885 57.478C153.374 55.2121 149.304 55.2121 146.794 57.478C144.283 59.7439 144.283 63.4177 146.794 65.6836C149.304 67.9496 153.374 67.9496 155.885 65.6836Z" fill="white"/>
<path opacity="0.2" d="M157.032 58.8829L151.357 61.5901V55.7878C152.525 55.7897 153.671 56.0788 154.671 56.6241C155.67 57.1694 156.487 57.9503 157.032 58.8829Z" fill="black"/>
</svg>
